<?xml version="1.0" encoding="UTF-8" standalone="no"?>
<svg
   width="1474"
   height="1707"
   viewBox="0 0 1474 1707"
   fill="none"
   version="1.1"
   id="svg79"
   sodipodi:docname="svg_europe3.svg"
   inkscape:version="1.4 (86a8ad7, 2024-10-11)"
   inkscape:export-filename="svg_europe4.svg"
   inkscape:export-xdpi="96"
   inkscape:export-ydpi="96"
   xmlns:inkscape="http://www.inkscape.org/namespaces/inkscape"
   xmlns:sodipodi="http://sodipodi.sourceforge.net/DTD/sodipodi-0.dtd"
   xmlns="http://www.w3.org/2000/svg"
   xmlns:svg="http://www.w3.org/2000/svg">
  <sodipodi:namedview
     id="namedview1"
     pagecolor="#505050"
     bordercolor="#eeeeee"
     borderopacity="1"
     inkscape:showpageshadow="0"
     inkscape:pageopacity="0"
     inkscape:pagecheckerboard="0"
     inkscape:deskcolor="#505050"
     inkscape:zoom="0.31259432"
     inkscape:cx="-470.25806"
     inkscape:cy="1076.4751"
     inkscape:window-width="1920"
     inkscape:window-height="991"
     inkscape:window-x="-9"
     inkscape:window-y="-9"
     inkscape:window-maximized="1"
     inkscape:current-layer="svg79" />
  <defs
     id="defs79" />
  <g
     id="g14">
    <path
       d="m 935.6,890.933 c -4.133,2.667 -5.067,2.667 -18.667,1.2 -7.866,-0.8 -23.866,-1.6 -35.6,-1.733 -23.733,-0.133 -26.666,0.667 -33.2,8.267 -4.4,5.333 -4.666,14.533 -0.8,26.933 3.734,12.4 10.934,18.4 21.6,18.4 7.6,0 17.2,4.8 19.6,9.867 1.467,3.2 1.467,5.2 0.267,10.533 -0.8,3.6 -1.067,7.067 -0.667,7.733 0.4,0.8 3.067,2.8 6,4.667 2.934,1.733 6.934,5.6 8.934,8.533 4.133,6 9.466,8.934 16.933,9.334 10.4,0.666 12.8,0.133 16.533,-4 2,-2.267 5.867,-4.667 8.667,-5.467 9.733,-2.667 16.8,-11.467 20.667,-26 1.066,-4.267 2.4,-6 5.466,-7.2 2.534,-1.067 4.8,-3.467 6,-6 0.934,-2.4 2.934,-4.8 4.267,-5.2 2.133,-0.667 2.4,-1.733 1.733,-8.667 -0.533,-6.266 -1.866,-9.466 -6,-15.466 -6.133,-9.067 -15.066,-16.134 -22.533,-18.134 -3.067,-0.8 -7.6,-3.466 -10.133,-5.866 L 940,888.133 Z"
       fill="#0f7b78"
       id="LT" />
  </g>
  <g
     id="g4">
    <path
       d="m 386.667,1114.13 c -10,4 -12.8,4.67 -17.334,3.87 -2.933,-0.67 -8,-1.07 -11.2,-1.2 -4.933,0 -6.4,0.53 -9.6,4.27 -2.133,2.4 -3.866,5.86 -3.866,7.86 0,3.34 0.266,3.47 6,2.67 6.666,-0.93 8.666,0.27 12.933,8.13 1.467,2.67 4.933,5.47 10,8 9.333,4.8 12.533,8.14 13.067,13.6 0.133,2.27 0.533,4.27 0.8,4.67 0.666,0.53 3.6,-1.2 10.933,-6.4 3.867,-2.8 6.267,-2.13 6.267,1.87 0,8 12.133,21.73 18.4,20.93 3.466,-0.4 3.6,-0.67 3.6,-9.2 0.133,-9.73 2.933,-15.87 7.333,-15.87 4.8,0 4.933,-8.4 0.267,-13.73 -1.2,-1.33 -4.134,-3.33 -6.534,-4.27 -2.933,-1.2 -4.533,-3.06 -5.2,-5.6 -0.4,-2 -1.2,-5.6 -1.733,-7.73 -0.533,-2.4 -2.667,-5.07 -5.2,-6.67 -10.533,-6.66 -16,-10 -16.4,-10 -0.267,0.14 -5.867,2.27 -12.533,4.8 z"
       fill="#0f7b78"
       id="BE" />
  </g>
  <g
     id="g5">
    <path
       d="m 432.667,1172.53 c 0,10.94 4.533,16.67 8,10.27 2.133,-4.13 1.6,-8.8 -1.467,-12.67 -4.267,-5.33 -6.533,-4.53 -6.533,2.4 z"
       fill="#0f7b78"
       id="LU" />
  </g>
  <g
     id="g20">
    <path
       d="m 789.333,1190 c -4.266,3.47 -8.666,4.4 -8.666,1.87 0,-2 -6.934,-0.67 -11.467,2.26 -1.867,1.34 -4.8,5.2 -6.667,8.67 -3.6,7.2 -10.666,12.13 -22,15.47 -4.133,1.2 -7.466,3.2 -8.8,5.2 -4.533,6.93 1.467,19.73 12.8,27.33 5.734,3.73 6.667,4 14.4,3.2 12.134,-1.2 15.6,-2.53 17.334,-6.13 2.266,-4.4 5.6,-6.54 10.266,-6.54 2.267,0 6.8,-1.2 10,-2.66 3.2,-1.47 8.4,-2.67 11.467,-2.67 4.933,0 6.267,-0.67 9.333,-4.4 5.467,-6.53 8.267,-7.47 20.667,-7.6 8.933,0 12.4,0.53 16.4,2.67 6.667,3.6 8.267,3.33 12,-1.74 2.667,-3.6 10.267,-19.33 10.267,-21.2 0,-0.4 -4,-2.53 -8.934,-4.8 -18.933,-8.66 -32.8,-9.06 -47.733,-1.06 -12.4,6.53 -15.2,6.26 -17.333,-2.14 -1.067,-4 -5.334,-9.06 -7.734,-9.06 -0.933,0 -3.333,1.46 -5.6,3.33 z"
       fill="#0f7b78"
       id="SK" />
  </g>
  <g
     id="g23">
    <path
       d="m 669.733,1219.6 c -8,6.4 -10.133,6.93 -20.4,5.07 -5.066,-0.94 -6,-0.54 -16.4,7.2 -12.133,8.93 -12.266,9.46 -8.8,20.8 1.334,4.13 1.867,8.4 1.334,10.66 -0.8,3.34 -1.334,3.6 -5.867,2.67 -12.8,-2.27 -19.867,-2.13 -30.267,0.53 -5.866,1.47 -14.8,3.34 -20,4.14 -5.066,0.8 -12.133,2.13 -15.6,2.93 -5.466,1.33 -7.066,1.2 -11.066,-0.67 -7.467,-3.6 -8.667,-3.06 -8.667,3.74 0,4.26 0.8,6.8 2.8,8.8 2.8,2.8 3.867,2.8 13.467,0.53 2.666,-0.67 4.533,-0.13 7.2,1.87 4.4,3.46 7.2,3.46 12.8,0.26 5.333,-3.2 28.666,-8.53 31.066,-7.06 1.067,0.53 3.6,3.46 5.867,6.53 4.533,6.27 8.667,8.4 22.267,11.47 22,4.93 39.733,3.6 65.2,-5.2 13.466,-4.54 17.333,-9.07 18.4,-21.74 0.933,-10.8 2,-12.66 8.8,-16 4.666,-2.13 4.8,-2.4 4.666,-9.46 0,-8.4 -3.6,-21.6 -6.666,-24.54 -1.067,-1.2 -4,-2.13 -6.534,-2.13 -2.4,0 -9.6,-1.47 -15.866,-3.33 -16.134,-4.67 -18.667,-4.4 -27.734,2.93 z"
       fill="#0f7b78"
       id="AT" />
  </g>
  <g
     id="g18">
    <path
       d="m 1003.6,1234.8 c -2.4,0.67 -4.133,1.73 -3.867,2.27 3.997,7.6 23.597,39.46 26.397,43.06 5.74,7.34 6.54,10.67 8,33.74 0.67,11.73 1.47,21.6 1.87,21.86 1.6,1.6 6.4,-5.06 12.53,-17.06 3.74,-7.07 7.74,-13.74 8.94,-14.8 1.33,-1.07 5.33,-1.87 9.6,-1.87 5.6,0 7.6,-0.53 8.8,-2.4 1.2,-1.87 0.93,-2.8 -1.34,-4.67 -1.6,-1.2 -4.4,-5.33 -6.26,-8.93 -1.87,-3.73 -5.74,-9.73 -8.8,-13.33 -6.14,-7.47 -6.54,-9.6 -2.8,-14.4 3.73,-4.67 3.33,-6.14 -1.47,-7.2 -2.27,-0.4 -4.8,-1.87 -5.6,-3.2 -1.07,-1.74 -3.2,-2.54 -6.53,-2.54 -3.47,0 -5.34,-0.8 -6.27,-2.53 -3.2,-5.73 -23.87,-10.8 -33.2,-8 z"
       fill="#0f7b78"
       id="MD" />
  </g>
  <g
     id="g35">
    <path
       d="m 692,1300.93 c -5.867,1.74 -18.8,4.4 -28.667,5.87 -19.2,2.93 -22.666,4.53 -22.666,10.4 0,4.67 5.733,16.67 9.866,20.8 4.134,4.13 6.4,4.13 11.467,0.4 3.867,-2.8 3.867,-2.8 10.267,-0.27 3.466,1.34 6.8,2.67 7.333,2.94 0.533,0.26 1.067,-1.6 1.333,-4 0.267,-3.47 1.334,-4.94 5.334,-7.07 4.666,-2.4 5.066,-3.2 5.066,-8.27 0,-4.93 0.667,-6.13 6.134,-10.66 17.866,-14.67 16.666,-16.94 -5.467,-10.14 z"
       fill="#0f7b78"
       id="SI" />
  </g>
  <g
     id="g25">
    <path
       d="m 700.267,1356.93 c -1.867,1.74 -0.934,6 2.933,13.47 6.8,13.47 20,32.4 28.933,41.33 4.667,4.67 8.534,9.47 8.534,10.67 0,4.27 6,11.2 15.733,18.4 l 10.267,7.47 0.8,-6.8 c 1.066,-8.4 6.533,-17.2 12,-19.07 3.2,-1.07 3.733,-1.87 3.066,-4.4 -0.8,-3.47 2.4,-6 7.334,-6 3.333,0 3.333,-0.27 0.666,-5.47 -1.066,-2.26 -1.866,-6.13 -1.733,-8.53 0.267,-2.67 -0.4,-5.47 -1.733,-6.93 -4,-4.54 -3.6,-11.2 1.066,-15.6 4.667,-4.14 3.6,-7.74 -1.866,-6.67 -2.534,0.53 -6,-0.27 -9.867,-2 -8.267,-3.73 -14.4,-4.93 -38.267,-7.6 -19.6,-2.13 -20.666,-2.13 -22,0 -4.266,7.07 -4.533,7.2 -8.933,1.73 -4.133,-4.93 -5.333,-5.73 -6.933,-4 z"
       fill="#0f7b78"
       id="BA">
      <title
         id="title69">Bosnie-Herzégovine</title>
    </path>
  </g>
  <g
     id="g28">
    <path
       d="m 797.2,1457.87 c -1.867,3.06 -1.867,4.13 0.133,12.66 1.867,7.34 2.134,12.4 1.467,24.4 -2,32.14 -1.467,35.2 6.667,40.8 3.2,2.4 6.133,5.6 6.666,7.6 0.4,1.87 1.334,3.34 1.867,3.34 1.467,0 9.6,-11.34 12.667,-17.34 1.2,-2.53 3.6,-6 5.066,-7.73 l 2.8,-3.07 -5.866,-11.33 c -5.734,-11.2 -5.867,-11.73 -6,-24.27 0,-10.53 -0.534,-13.73 -2.8,-17.6 -5.734,-10 -18.267,-14 -22.667,-7.46 z"
       fill="#0f7b78"
       id="ME">
      <title
         id="title68">Monténégro</title>
    </path>
  </g>
  <g
     id="g29">
    <path
       d="m 846.8,1466.53 c -1.467,1.6 -3.867,2.8 -5.467,2.8 -5.466,0 -13.066,11.6 -13.066,20 0,5.87 3.333,12.67 7.866,15.47 2,1.47 6,2.27 10.534,2.27 5.733,0 8.4,-0.8 13.733,-4.27 3.6,-2.27 9.733,-4.67 13.733,-5.47 4.534,-0.8 8.134,-2.4 9.6,-4.13 5.2,-6.4 0.667,-21.87 -7.733,-26.27 -2.4,-1.2 -8.667,-2.26 -15.333,-2.66 -10.267,-0.54 -11.6,-0.27 -13.867,2.26 z"
       fill="#0f7b78"
       id="MK">
      <title
         id="title67">Macédoine</title>
    </path>
  </g>
  <g
     id="g3">
    <path
       d="m 327.333,1129.47 c -5.733,2.26 -9.333,6.66 -9.333,11.2 0,14 -9.6,27.73 -24.8,35.33 -12.4,6.4 -15.2,8.8 -15.2,13.33 0,5.87 -4.133,8 -15.333,8 -12.534,0 -23.334,-2.93 -26.4,-7.33 -2.534,-3.33 -10,-8.13 -11.067,-6.93 -0.267,0.26 0.4,3.06 1.467,6.26 2.533,7.07 7.333,32.94 6.266,34 -0.4,0.4 -3.866,0.67 -7.6,0.67 -3.866,0 -10.266,0.67 -14.133,1.47 -11.333,2.4 -12.933,2 -19.867,-4.8 l -6.266,-6.14 -6.534,4.14 c -5.066,3.06 -9.066,4.4 -16.8,5.2 -13.733,1.6 -14.4,2.13 -8.4,7.6 4.534,4.26 4.8,5.06 4.534,11.46 l -0.4,6.8 6.666,1.74 c 3.6,0.93 10.134,3.33 14.534,5.33 4.4,2 12.133,4.67 17.333,5.87 8.667,2.13 9.333,2.53 10.133,6.53 0.534,2.53 3.067,6.27 6.4,9.33 4.267,3.87 5.467,6 5.467,9.34 0,8.13 7.733,17.6 20.133,24.66 3.467,2 6.534,4.67 6.934,6.14 0.933,3.46 -2.534,43.46 -5.2,60.93 -1.6,10.93 -5.2,26 -9.467,40.53 -0.4,1.2 0.667,2.67 2.8,3.6 2,0.8 3.467,2.67 3.467,4 0,1.47 1.066,3.47 2.4,4.67 5.333,4.8 13.866,6.53 37.6,7.6 26,1.33 35.066,3.33 43.066,9.6 6,4.67 12.667,6 20.667,3.87 6,-1.74 7.067,-3.07 9.6,-13.2 1.867,-7.2 8.667,-14.14 19.867,-20.14 7.866,-4.13 9.2,-4.4 17.333,-3.73 5.2,0.4 16.533,3.2 27.6,6.8 10.4,3.33 19.867,6.13 21.067,6.13 3.6,0 9.466,-3.46 17.6,-10.66 4.266,-3.74 10,-8.14 12.933,-9.74 2.8,-1.6 6.4,-4.93 7.867,-7.2 l 2.666,-4.4 H 472.8 c -2.933,0 -5.733,-1.46 -9.6,-4.93 -6.933,-6.27 -9.2,-10.8 -9.2,-18.27 0,-3.33 -1.067,-8.26 -2.267,-10.93 l -2.4,-4.8 4.667,-3.87 c 2.533,-2.13 5.067,-3.86 5.6,-3.86 1.867,0 1.2,-3.2 -2.267,-11.87 -3.066,-7.47 -3.2,-8.8 -1.733,-12.93 1.333,-3.87 1.333,-5.2 -0.267,-8.14 -1.066,-1.86 -3.066,-4.13 -4.4,-4.93 -2.4,-1.47 -2.933,-1.2 -14.533,5.6 -4.933,2.93 -6,1.33 -3.2,-4.93 1.333,-2.8 2,-6.4 1.6,-7.74 -0.667,-1.86 0.533,-3.86 4.533,-7.46 2.934,-2.54 5.334,-5.6 5.334,-6.67 0,-1.2 2.666,-5.2 6,-9.07 3.2,-3.86 6.533,-8.93 7.333,-11.33 0.933,-2.53 2.667,-4.8 4.4,-5.33 4.4,-1.34 5.733,-3.87 11.067,-19.87 2.8,-8.13 6.4,-17.87 8.133,-21.73 3.2,-7.34 4,-13.6 1.733,-13.6 -0.8,0 -11.466,-4.14 -23.733,-9.2 -12.267,-5.07 -25.733,-10 -29.867,-10.94 -7.333,-1.46 -11.6,-3.73 -27.2,-14.26 -3.6,-2.4 -8.8,-4.67 -11.466,-5.2 -7.067,-1.07 -9.2,-3.07 -10,-9.47 -0.667,-4.8 -1.2,-5.6 -4,-5.6 -7.467,0 -17.2,-7.73 -19.734,-15.73 -0.8,-2.8 -1.466,-3.07 -6,-2.27 -6.4,1.07 -10,-0.8 -11.733,-6 -1.2,-3.2 -2.267,-4 -5.2,-3.87 -2,0 -5.2,0.67 -7.067,1.34 z"
       fill="#0f7b78"
       id="FR">
      <title
         id="title66">France</title>
    </path>
    <path
       d="m 511.733,1452.93 c -2.4,1.6 -3.066,3.34 -3.066,8.27 0.133,6.8 3.066,23.6 4.4,25.07 1.6,1.6 7.333,-5.07 10.4,-12 3.333,-7.87 4,-18.14 1.333,-21.34 -2.267,-2.8 -9.2,-2.8 -13.067,0 z"
       fill="#0f7b78"
       id="FR-2">
      <title
         id="title65">France</title>
    </path>
    <path
       d="m 337.01186,1152.3224 c -9.858,0.25 -19.789,5.35 -20.901,14.45 -2.409,19.73 16.163,56.78 19.641,56.54 4.372,-0.3 24.013,-36.82 22,-56.18 -1.087,-10.46 -10.883,-15.06 -20.747,-14.81 z m 1.383,6.13 c 4.484,0 8.116,3.64 8.116,8.14 0,4.5 -3.632,8.14 -8.116,8.14 -4.484,0 -8.116,-3.64 -8.116,-8.14 0,-4.5 3.632,-8.14 8.116,-8.14 z"
       fill="#f07f1a"
       id="pin-FR">
      <title
         id="title94">Paris</title>
    </path>
  </g>
  <g
     id="g16">
    <path
       d="m 746,964.8 c -12.533,3.333 -25.067,8.667 -31.867,13.2 -7.733,5.333 -12,7.2 -31.866,14.133 -8.4,2.934 -16.667,6.267 -18.534,7.467 -3.6,2.4 -3.6,0.93 -0.933,19.47 0.667,4.4 0,7.73 -2.667,14.4 -4.133,10.53 -4.266,12.13 -0.666,15.33 8.133,7.33 16.266,33.07 18.533,58.53 1.067,11.74 1.467,13.6 4.267,15.34 1.6,1.06 5.2,3.86 7.733,6.13 2.533,2.27 8,5.2 12,6.53 13.467,4.27 17.6,8.27 12.667,11.87 -1.867,1.33 -1.467,2.13 2.533,6 5.333,5.2 9.333,4.93 8.133,-0.27 -1.733,-6.66 4.8,-5.6 23.334,3.74 13.733,6.93 26.4,15.33 32.533,21.73 5.067,5.33 5.067,5.33 9.733,3.47 l 4.534,-2 7.733,7.46 c 4.267,4 8.4,7.34 9.067,7.34 0.8,0 4.933,-1.87 9.066,-4 6.534,-3.47 9.067,-4 17.867,-4 12.533,0 21.733,2.53 34.533,9.6 5.334,2.93 10.134,5.06 10.4,4.66 0.4,-0.4 -0.266,-2.53 -1.333,-4.8 -4.8,-9.06 -2.533,-13.2 19.333,-35.6 18.8,-19.2 18.4,-18.4 12.8,-29.33 -4.133,-8.27 -6.533,-17.73 -8.133,-33.47 l -1.733,-16.26 -5.6,-6.14 c -6.4,-6.93 -6.267,-7.6 2.533,-16 3.067,-2.93 6.667,-7.6 8.133,-10.26 2.934,-5.74 2.4,-10.14 -4.933,-38.4 -5.2,-19.603 -7.2,-24.537 -10.667,-25.87 -1.2,-0.533 -14.266,-1.467 -29.066,-2.133 -24.8,-1.2 -40.267,-0.8 -71.467,2.133 -6.267,0.533 -8.4,0.133 -14.667,-3.067 -4.533,-2.266 -8,-5.066 -8.933,-7.466 -5.333,-11.467 -4.8,-10.934 -11.067,-11.2 C 756,962.933 750,963.733 746,964.8 Z"
       fill="#0f7b78"
       id="PL">
      <title
         id="title64">Pologne</title>
    </path>
    <path
       d="m 832.116,1015.01 c -9.858,0.25 -19.789,5.35 -20.901,14.45 -2.409,19.73 16.163,56.78 19.641,56.54 4.372,-0.3 24.013,-36.82 22,-56.18 -1.087,-10.46 -10.883,-15.06 -20.747,-14.81 z m 1.383,6.13 c 4.484,0 8.116,3.64 8.116,8.14 0,4.5 -3.632,8.14 -8.116,8.14 -4.484,0 -8.116,-3.64 -8.116,-8.14 0,-4.5 3.632,-8.14 8.116,-8.14 z"
       fill="#f07f1a"
       id="pin-PL">
      <title
         id="title93">Varsovie</title>
    </path>
  </g>
  <g
     id="g13">
    <path
       d="m 946.667,809.2 c -4.934,1.2 -11.734,4.667 -13.734,7.067 -0.8,1.066 -1.333,6.4 -1.2,13.066 0.267,10.134 -0.133,12 -3.333,17.6 -6.667,11.067 -18.133,15.2 -27.733,9.6 -2.667,-1.6 -5.734,-5.333 -8,-9.866 C 887.467,836.533 879.333,828 874.933,828 c -5.6,0 -18,5.2 -20.666,8.667 -1.467,1.733 -2.934,6.4 -3.467,10.133 -0.533,3.867 -3.067,12.4 -5.733,19.067 -4.4,11.2 -7.467,28.8 -5.2,28.8 0.533,0 4.4,-2 8.533,-4.4 14.667,-8.667 20.4,-9.2 57.733,-5.467 23.2,2.4 22.8,2.4 33.467,-3.067 0.4,-0.266 3.6,2 7.067,4.934 3.333,2.933 7.066,5.333 8.133,5.333 4.133,0 10.8,4.667 20.667,14.133 5.6,5.467 10.8,9.867 11.333,9.867 0.667,0 3.6,-1.6 6.533,-3.333 3.734,-2.267 7.337,-3.334 11.597,-3.334 5.47,0 7.2,-0.666 11.74,-4.8 8.53,-7.733 11.2,-12.933 10.26,-20.533 -0.93,-7.333 -3.86,-14 -8.26,-18.133 -2.67,-2.534 -2.94,-3.734 -2.27,-12.8 0.4,-6 0,-11.067 -0.93,-12.8 -0.8,-1.467 -4.8,-4.4 -8.94,-6.4 -6.93,-3.334 -7.997,-3.6 -13.33,-2.134 -3.333,0.934 -6.533,1.6 -7.333,1.6 -0.8,0 -6.4,-4.8 -12.4,-10.666 -6,-5.734 -13.067,-11.467 -15.734,-12.667 -5.466,-2.133 -5.2,-2.133 -11.066,-0.8 z"
       fill="#0f7b78"
       id="LV">
      <title
         id="title63">Lettonie</title>
    </path>
    <path
       d="m 920.94912,807.42556 c -9.858,0.248 -19.789,5.347 -20.901,14.449 -2.409,19.733 16.163,56.782 19.641,56.541 4.372,-0.298 24.013,-36.821 22,-56.176 -1.087,-10.458 -10.883,-15.061 -20.747,-14.814 z m 1.383,6.128 c 4.484,0 8.116,3.643 8.116,8.141 0,4.498 -3.632,8.141 -8.116,8.141 -4.484,0 -8.116,-3.643 -8.116,-8.141 0,-4.498 3.632,-8.141 8.116,-8.141 z"
       fill="#f07f1a"
       id="pin-LV">
      <title
         id="title92">Riga</title>
    </path>
  </g>
  <g
     id="g12">
    <path
       d="m 958,731.2 c -2,1.333 -6.933,2.133 -12.667,2.133 -10.4,0.134 -18,2.8 -23.2,8.4 -1.733,2 -5.2,4.134 -7.733,5.067 -2.4,0.8 -5.067,2.533 -5.867,4 -1.733,3.467 -0.266,11.067 3.2,15.333 2.534,3.334 2.534,3.734 0.534,5.2 -3.2,2.267 -2.8,4 1.866,10.8 4.934,7.2 7.067,8.267 10.534,5.2 5.6,-5.066 11.333,1.2 10,11.067 -1.067,6.933 1.333,8.4 8.133,5.067 2.533,-1.2 5.6,-2.134 6.933,-2.134 5.2,0 16.667,7.067 26,15.867 5.467,5.2 10.534,9.467 11.334,9.467 0.666,0 3.066,-0.934 5.066,-2 2.4,-1.2 5.467,-1.734 7.997,-1.2 3.6,0.666 5.07,0 9.74,-4.134 6.13,-5.6 6.8,-9.066 3.33,-17.466 -1.33,-3.2 -2.13,-8.934 -2,-15.867 0,-12.933 3.2,-23.867 10.93,-36.933 2.8,-4.8 5.2,-9.067 5.2,-9.467 0,-0.267 -7.06,-0.933 -15.6,-1.333 -11.46,-0.534 -18.797,-1.6 -26.93,-4.134 C 970,729.6 962.267,728.8 958,731.2 Z"
       fill="#0f7b78"
       id="EE" />
    <path
       d="m 877.6,781.333 c -5.6,1.734 -7.6,3.867 -7.6,8.134 0,3.066 0.667,3.866 2.8,3.866 4.667,0 17.467,-7.866 16.933,-10.533 -0.533,-2.533 -6.4,-3.2 -12.133,-1.467 z"
       fill="#0f7b78"
       id="EE-2">
      <title
         id="title62">Estonie</title>
    </path>
    <path
       d="m 977.46982,701.46696 c -9.858,0.248 -19.789,5.347 -20.901,14.449 -2.409,19.733 16.163,56.782 19.641,56.541 4.372,-0.298 24.01298,-36.821 22,-56.176 -1.087,-10.458 -10.883,-15.061 -20.747,-14.814 z m 1.383,6.128 c 4.484,0 8.116,3.643 8.116,8.141 0,4.498 -3.632,8.141 -8.116,8.141 -4.484,0 -8.116,-3.643 -8.116,-8.141 0,-4.498 3.632,-8.141 8.116,-8.141 z"
       fill="#f07f1a"
       id="pin-EE">
      <title
         id="title91">Tallinn</title>
    </path>
  </g>
  <g
     id="g15">
    <path
       d="m 1025.33,906.8 c -7.46,7.6 -11.86,9.733 -18.93,8.667 -5.2,-0.667 -6.27,-0.4 -9.067,2.666 -4.133,4.4 -5.6,11.6 -3.333,15.867 2.8,5.333 0.667,9.6 -6.667,13.333 -7.466,3.734 -13.866,11.6 -16,19.334 -0.666,2.666 -2.533,6 -4,7.333 -2,1.733 -2.666,3.867 -2.4,7.2 0.4,4.533 0.267,4.667 -5.066,5.6 -8.667,1.6 -15.067,4.8 -16.8,8.533 -2,4.4 -9.867,6.537 -19.6,5.467 -4.534,-0.53 -7.734,-0.27 -8.934,0.67 -2.4,2 -2.4,10.8 0.134,21.86 2.4,10 2.8,26.4 0.933,31.34 -1.6,4 -3.733,6 -8.267,7.33 -7.2,2.13 -6.933,5.87 0.8,13.47 5.6,5.33 6.134,6.4 5.467,10.66 -0.4,2.54 -0.4,5.6 0,6.67 1.067,2.67 5.333,2.27 9.867,-0.93 6.933,-4.94 16.4,-6.54 38.133,-6.54 22.667,0 38.93,2.4 44.8,6.8 5.2,3.74 19.87,6.14 49.6,7.87 20.53,1.2 26.27,2 30.53,4.13 2.8,1.47 5.2,2.54 5.47,2.27 0.13,-0.27 0.93,-3.47 1.87,-7.07 2.66,-10.93 6.93,-16 17.46,-20.93 l 9.34,-4.4 -0.14,-6 c 0,-3.33 -1.2,-10.27 -2.66,-15.33 -4.4,-15.34 -4.54,-17.34 -1.2,-20.67 3.06,-3.07 2.93,-3.07 16.8,-0.53 4.66,0.93 14.8,-3.47 16.13,-6.94 0.4,-1.06 -0.53,-3.33 -2.13,-5.06 -1.47,-1.6 -2.8,-4.54 -2.8,-6.4 0,-3.2 -0.54,-3.47 -7.2,-4.27 -7.34,-0.93 -10.4,-3.07 -12,-8.4 -0.54,-1.6 -3.34,-5.867 -6.27,-9.333 -6.93,-8.4 -17.33,-29.467 -17.47,-35.2 0,-2.534 0.4,-7.334 0.94,-10.667 0.8,-5.467 0.4,-7.2 -2.8,-13.333 -4.14,-7.467 -11.07,-13.467 -18.94,-16 -4.13,-1.334 -5.33,-1.2 -10.26,1.466 -7.07,3.867 -10,2.934 -10,-3.2 0,-5.733 -3.47,-8.133 -10.14,-6.933 -3.6,0.8 -4.66,0.4 -5.86,-1.733 -1.07,-2.134 -2.27,-2.534 -5.2,-2 -2.14,0.533 -4.27,0.133 -4.67,-0.667 -1.73,-2.667 -4.13,-1.6 -9.47,4 z"
       fill="#0f7b78"
       id="BY"
       sodipodi:nodetypes="cccccccccccccccccccscccccccccccccsccccccccsccccc">
      <title
         id="title61">Biélorussie</title>
    </path>
    <path
       d="m 1025.1967,949.68825 c -9.858,0.248 -19.789,5.347 -20.901,14.449 -2.409,19.733 16.163,56.78195 19.641,56.54095 4.372,-0.298 24.013,-36.82095 22,-56.17595 -1.087,-10.458 -10.883,-15.061 -20.747,-14.814 z m 1.383,6.128 c 4.484,0 8.116,3.643 8.116,8.141 0,4.498 -3.632,8.141 -8.116,8.141 -4.484,0 -8.116,-3.643 -8.116,-8.141 0,-4.498 3.632,-8.141 8.116,-8.141 z"
       fill="#f07f1a"
       id="pin-BY">
      <title
         id="title90">Minsk</title>
    </path>
  </g>
  <g
     id="g21">
    <path
       d="m 660.667,1134.53 c -21.067,5.87 -48.267,19.34 -52.8,26.14 -1.734,2.66 -1.867,4.13 -0.667,7.46 2,5.74 12.4,18.4 27.067,32.8 13.333,13.07 21.2,19.07 25.2,19.07 1.466,0 6.133,-3.33 10.533,-7.33 4.4,-4 8.533,-7.34 9.067,-7.34 0.666,0 6.133,1.6 12.4,3.47 14.666,4.4 36.133,6 39.6,2.8 1.6,-1.47 3.866,-2 6.933,-1.47 6.667,1.07 15.867,-4.13 19.467,-10.93 1.733,-3.2 5.466,-7.07 10.266,-10.27 4.134,-2.8 7.6,-5.73 7.6,-6.66 0,-2.94 -6.8,-8.4 -19.333,-15.34 -14.667,-8.13 -21.467,-10.66 -23.867,-8.93 -9.2,6.8 -8.4,6.67 -13.866,2.8 -5.6,-3.73 -10,-9.2 -11.467,-13.73 -1.067,-3.2 -8.8,-6.8 -17.467,-8 -4.266,-0.54 -6.133,-1.47 -7.2,-3.87 -1.2,-2.67 -2.4,-3.2 -7.066,-3.07 -3.2,0 -9.6,1.07 -14.4,2.4 z"
       fill="#0f7b78"
       id="CZ">
      <title
         id="title60">République Tchèque</title>
    </path>
    <path
       d="m 663.55451,1128.7479 c -9.858,0.25 -19.789,5.35 -20.901,14.45 -2.409,19.73 16.163,56.78 19.641,56.54 4.372,-0.3 24.013,-36.82 22,-56.18 -1.087,-10.46 -10.883,-15.06 -20.747,-14.81 z m 1.383,6.13 c 4.484,0 8.116,3.64 8.116,8.14 0,4.5 -3.632,8.14 -8.116,8.14 -4.484,0 -8.116,-3.64 -8.116,-8.14 0,-4.5 3.632,-8.14 8.116,-8.14 z"
       fill="#f07f1a"
       id="pin-CZ">
      <title
         id="title89">Prague</title>
    </path>
  </g>
  <g
     id="g24">
    <path
       d="m 579.067,1290.53 c -2,0.67 -5.334,2.4 -7.6,4 -2.4,1.74 -5.867,2.8 -9.2,2.8 -4.667,0 -5.467,0.4 -6.667,3.87 -0.8,2.13 -2.533,4.53 -4,5.33 -1.467,0.8 -3.067,2.94 -3.467,4.8 -1.6,6.54 -11.733,7.2 -18.266,1.2 -1.334,-1.2 -3.334,-1.86 -4.4,-1.46 -2.667,1.06 -6.134,8 -7.2,14.66 -1.467,8.4 -4.267,7.87 -14,-2.26 -4.667,-4.8 -9.2,-8.8 -10,-8.8 -0.934,0 -1.6,1.6 -1.6,3.46 0,6 -6.134,10.4 -16.934,12.4 -5.2,0.94 -10.533,2.4 -11.733,3.34 -2.133,1.6 -2.133,2 0.533,7.2 1.467,3.06 2.8,6.4 2.8,7.46 0,1.07 -2.533,4 -5.6,6.54 l -5.466,4.53 3.466,6.4 c 4.134,7.2 4.4,9.73 1.6,10.8 -2.933,1.2 -2.533,2.67 2.8,8.53 3.2,3.47 6.4,5.6 9.467,6.14 3.2,0.53 5.467,2.13 6.933,4.66 l 2.4,3.87 5.2,-3.47 c 2.8,-2 8.8,-6.4 13.2,-9.86 4.4,-3.34 8.667,-6.67 9.6,-7.07 1.734,-1.07 19.467,6.67 28.534,12.53 7.733,4.94 12.266,13.07 15.066,27.07 1.867,9.33 2.934,11.47 9.334,19.33 11.066,13.34 44.8,46.14 50.8,49.07 2.933,1.6 8.933,3.47 13.333,4.4 12,2.4 16.4,4.67 24.8,12.67 4.267,4 8.667,7.33 9.867,7.33 4.8,0 9.6,4 12.666,10.67 2.534,5.33 4.534,7.6 8.667,9.6 7.333,3.73 9.867,6.13 13.333,13.06 4.134,8.27 10,27.2 10.267,33.07 0.133,3.33 -1.067,6.67 -3.467,10.13 -4.133,6.14 -6.8,14.4 -5.733,17.34 2.533,6.66 12.133,-3.07 16.8,-16.94 1.733,-5.06 3.6,-7.73 6.933,-9.86 7.2,-4.8 7.867,-5.6 7.867,-10 0,-3.34 -1.467,-5.47 -7.333,-10.94 -8.8,-8.13 -9.2,-10.93 -3.067,-20.13 6.667,-10 13.467,-16.67 17.2,-16.67 6,0 25.2,13.47 25.2,17.6 0,1.6 3.733,1.34 4.667,-0.26 2.933,-4.67 -12.4,-17.74 -40,-34 -22.4,-13.2 -26,-16 -26,-20 0,-1.74 0.666,-3.6 1.333,-4 0.8,-0.4 1.333,-2 1.333,-3.47 0,-2.67 -0.533,-2.67 -9.733,-1.87 -11.6,1.07 -18,-0.4 -26.8,-6.26 -10.133,-6.67 -17.333,-16.94 -24.267,-34.67 -6.533,-16.8 -11.466,-23.07 -23.2,-29.07 -5.066,-2.66 -5.733,-2.66 -7.866,-0.8 -4.934,4.54 -6.934,2.27 -8.4,-9.2 -2.4,-20.26 -2.8,-26.93 -1.2,-27.86 1.866,-1.2 1.866,-7.2 -0.134,-14.67 -2.266,-8.53 0,-11.2 14.667,-17.33 6.667,-2.67 12.8,-5.87 13.6,-6.94 1.067,-1.2 1.467,-4.93 1.067,-10.4 -0.534,-9.86 -2.934,-13.46 -9.467,-14.66 -5.2,-1.07 -16.4,-6.4 -21.067,-10.14 -3.733,-3.2 -15.6,-4.66 -21.466,-2.8 z"
       fill="#0f7b78"
       id="IT">
      <title
         id="title58">Italie</title>
    </path>
    <path
       d="m 507.333,1510.4 c -8.666,4.27 -9.466,6.93 -6.133,20 2.667,10.27 2.667,17.07 -0.133,27.2 l -2.267,8.13 4.533,3.74 c 5.6,4.66 6.667,4.8 10.534,0.66 1.733,-1.73 4.4,-3.6 6.133,-4 3.867,-0.93 6.533,-7.6 8.667,-21.2 1.733,-11.6 0.933,-18.66 -2.8,-27.6 -3.2,-7.06 -6.134,-10.66 -9.067,-10.66 -1.2,0 -5.467,1.73 -9.467,3.73 z"
       fill="#0f7b78"
       id="IT-2">
      <title
         id="title59">Italie</title>
    </path>
    <path
       d="m 624,1608.8 c -1.6,1.2 -4.133,1.73 -6.4,1.33 -6.267,-1.2 -6.267,2.8 -0.133,8.14 6.533,5.6 27.733,16.4 32.133,16.4 4.4,0 8,2 15.333,8.8 7.067,6.53 9.2,7.06 13.067,3.2 3.067,-3.07 3.333,-6.14 1.2,-11.6 -2.267,-6 -1.733,-11.6 2.267,-19.6 2,-4.14 3.333,-7.87 2.8,-8.27 -0.4,-0.4 -8.934,0.13 -18.934,1.2 -15.733,1.73 -19.466,1.73 -27.066,0.13 -10.934,-2.26 -10.934,-2.26 -14.267,0.27 z"
       fill="#0f7b78"
       id="IT-3">
      <title
         id="title57">Italie</title>
    </path>
    <path
       d="m 614.116,1403.01 c -9.858,0.25 -19.789,5.35 -20.901,14.45 -2.409,19.73 16.163,56.78 19.641,56.54 4.372,-0.3 24.013,-36.82 22,-56.18 -1.087,-10.46 -10.883,-15.06 -20.747,-14.81 z m 1.383,6.13 c 4.484,0 8.116,3.64 8.116,8.14 0,4.5 -3.632,8.14 -8.116,8.14 -4.484,0 -8.116,-3.64 -8.116,-8.14 0,-4.5 3.632,-8.14 8.116,-8.14 z"
       fill="#f07f1a"
       id="pin-IT">
      <title
         id="title88">Rome</title>
    </path>
  </g>
  <g
     id="g7">
    <path
       d="m 508.667,959.333 c 0,0.4 1.333,2.934 3.066,5.734 5.067,8 5.2,9.333 1.734,12.4 l -3.067,2.666 3.467,6.8 c 3.866,7.6 19.2,24.667 24.666,27.597 5.2,2.8 4.667,5.87 -0.8,4.8 -5.2,-1.2 -13.866,-5.33 -15.066,-7.33 -1.067,-1.87 -9.6,-6 -14.534,-7.2 l -3.866,-0.93 0.8,6.53 c 0.666,5.47 0.266,7.07 -1.734,8.93 -3.333,3.07 -10.4,1.74 -15.2,-2.66 -2.933,-2.8 -4.933,-3.34 -11.2,-3.34 -10.933,0 -11.466,0.54 -9.6,10.8 2.934,15.74 -0.933,29.87 -8.933,33.74 l -4.8,2.26 4.933,4.54 c 4.134,3.73 4.8,5.06 4,8.26 -1.333,6.14 -7.466,12.8 -14.933,16.4 l -6.933,3.34 v 7.2 c 0,3.86 -0.934,10.66 -2.134,15.2 -2.4,9.2 -1.866,13.2 2.8,24.8 3.467,8.4 4.4,16.66 2,18.13 -2.133,1.33 -1.6,5.6 1.334,11.33 1.466,2.94 3.066,8.14 3.6,11.6 0.4,3.6 2,7.74 3.466,9.34 1.467,1.6 11.067,6.26 21.467,10.4 10.267,4.13 19.333,8.13 20,8.66 0.8,0.8 -0.933,6 -4.133,12.94 -6.8,14.53 -11.067,27.06 -11.067,32.4 0,4.66 0.667,4.8 13.333,2 10.667,-2.4 21.867,-2.54 25.734,-0.4 1.6,0.93 4.8,1.73 7.2,1.86 2.266,0.27 8.533,2.54 13.733,5.34 l 9.6,4.93 12.8,-2.27 c 7.2,-1.33 19.333,-3.73 27.2,-5.6 16.533,-3.73 22.4,-4 27.867,-1.06 2.266,1.06 4.4,1.86 4.666,1.46 0.267,-0.26 -0.666,-4.13 -2.266,-8.66 -3.6,-10.54 -2.667,-12.54 11.466,-24.67 5.867,-5.07 10.934,-9.73 11.2,-10.53 0.134,-0.67 -6.266,-8 -14.266,-16.27 -17.467,-17.87 -25.6,-29.6 -25.6,-36.93 0,-4.14 0.8,-5.74 5.2,-9.47 6.533,-5.6 34.133,-20 45.466,-23.6 15.2,-4.93 21.334,-11.2 21.334,-21.47 0,-7.73 -7.467,-39.33 -11.2,-47.33 -1.734,-3.6 -4.934,-8.93 -7.334,-11.87 -4.933,-6.13 -4.8,-5.86 -1.6,-13.86 3.867,-9.6 4.4,-13.07 2.8,-22 -2.8,-14.937 -8.266,-22.27 -16.4,-22.003 -3.733,0.133 -6.4,-0.934 -10.666,-4.134 -3.067,-2.266 -7.6,-5.2 -9.867,-6.4 -4.267,-2.133 -4.4,-2.133 -16.933,4 -6.934,3.467 -15.067,8.4 -18.134,10.934 -3.066,2.533 -6.933,4.663 -8.4,4.663 -5.6,0 -12.933,-2.797 -14.266,-5.33 -1.734,-3.333 0.133,-7.467 4,-8.667 1.466,-0.4 2.666,-1.6 2.666,-2.533 0,-1.2 -3.2,-2 -10.8,-2.533 -7.066,-0.4 -11.466,-1.467 -13.066,-2.8 -1.334,-1.2 -3.334,-2.134 -4.4,-2.134 -3.334,0 -6.4,-1.466 -6.4,-3.066 0,-0.8 1.2,-2.8 2.8,-4.4 l 2.8,-2.934 -3.2,-2.133 c -5.067,-3.333 -26.4,-7.733 -26.4,-5.467 z"
       fill="#0f7b78"
       id="DE">
      <title
         id="title56">Allemagne</title>
    </path>
    <path
       d="m 620.116,999.009 c -9.858,0.248 -19.789,5.351 -20.901,14.451 -2.409,19.73 16.163,56.78 19.641,56.54 4.372,-0.3 24.013,-36.82 22,-56.18 -1.087,-10.46 -10.883,-15.058 -20.747,-14.811 z m 1.383,6.131 c 4.484,0 8.116,3.64 8.116,8.14 0,4.5 -3.632,8.14 -8.116,8.14 -4.484,0 -8.116,-3.64 -8.116,-8.14 0,-4.5 3.632,-8.14 8.116,-8.14 z"
       fill="#f07f1a"
       id="pin-DE">
      <title
         id="title87">Berlin</title>
    </path>
  </g>
  <g
     id="g10">
    <path
       d="m 819.333,154.267 c 0,0.4 0.934,4 2.267,7.866 l 2.133,6.934 -4,8.266 c -3.333,7.067 -3.866,8.934 -2.666,12 1.2,3.2 0.933,4.4 -2.267,8.534 -4.4,5.866 -7.333,6 -17.733,1.333 -4.267,-1.867 -11.6,-4.267 -16.4,-5.2 -5.734,-1.333 -9.467,-2.933 -11.067,-4.8 -3.6,-4.4 -5.2,-1.733 -6.4,11.067 C 761.733,216.133 756.933,228 752,228 c -0.933,0 -4.4,-1.6 -7.867,-3.467 -5.866,-3.2 -6.4,-3.333 -9.333,-1.333 -1.867,1.067 -5.067,5.867 -7.2,10.4 -2.133,4.667 -5.6,11.867 -7.6,16.267 -2.8,6 -4.667,8.133 -8.267,9.6 l -4.533,2 4.933,8.666 c 3.334,5.867 4.534,9.6 4,11.734 -0.4,1.733 -4.533,8.8 -8.933,15.6 -9.867,14.933 -15.467,26.266 -17.067,34.933 -1.466,7.867 -4,10.8 -12,13.733 -3.333,1.334 -6.933,3.067 -8,4 -1.2,1.2 -2.4,8.267 -3.6,22.4 -2,24 -3.866,32.534 -11.466,50.134 -9.6,22.533 -9.467,22 -5.067,26.4 7.333,7.333 8,20.4 1.467,28.533 -2.4,2.933 -3.467,3.067 -16.8,3.067 H 620.4 l -5.733,6.4 c -11.6,12.8 -14.8,30.133 -13.467,74.266 0.4,15.067 1.467,32.4 2.133,38.534 1.334,11.733 2.667,14.666 12.134,25.733 3.066,3.6 4.266,6.267 4.133,9.467 -0.267,6.533 -3.6,13.6 -8.267,17.2 l -4.133,3.2 2.267,9.333 c 4,17.2 0.266,36.533 -8.934,45.333 -2.266,2.267 -3.866,5.067 -3.866,7.2 0,1.867 -0.934,4.8 -2.134,6.534 -1.466,2 -2.533,7.6 -3.2,16.8 -1.466,19.466 -6.533,27.466 -13.6,21.066 l -2.8,-2.4 0.8,9.334 c 1.734,18.666 9.6,40.8 26.534,74.533 4.4,8.933 9.866,18.667 11.866,21.733 2.134,3.067 4.534,8.667 5.2,12.267 1.2,6.267 0.934,9.467 -2.133,21.733 -0.533,2.667 0.267,5.467 3.6,11.2 3.067,5.467 4.267,9.2 4.133,13.334 -0.133,9.866 0.534,10 23.734,3.466 2.933,-0.933 3.466,-1.866 4.133,-9.2 0.933,-9.733 3.867,-14.933 9.333,-16 2.4,-0.4 4.534,-2 5.6,-4.266 C 669.333,894 669.467,894 684.667,894 H 700 l 5.067,-10 c 6.533,-13.067 12,-39.467 15.6,-75.333 2.666,-25.467 3.066,-26.8 14.133,-38 5.333,-5.467 10.267,-11.6 11.067,-13.734 1.2,-3.066 2,-3.466 4.8,-2.8 4.533,1.2 9.6,-2.4 11.066,-7.866 1.067,-3.867 1.6,-4.267 6,-3.867 6,0.4 6.534,-1.867 1.6,-6.4 -4.4,-4.133 -4.266,-6.133 1.067,-8.8 7.867,-4 12.933,-8.533 12.933,-11.6 0,-9.2 -25.733,-38.4 -37.2,-42.267 -7.733,-2.666 -10.4,-6.666 -12.266,-18.666 -2.267,-15.334 -0.934,-31.734 4,-47.067 5.066,-15.333 6.4,-24.667 4.266,-28.667 -2.133,-4 -0.266,-7.066 7.334,-12.533 3.866,-2.8 7.066,-6.4 8.533,-9.733 5.2,-12.267 28.667,-37.067 46.667,-49.734 21.866,-15.2 22,-15.466 27.733,-27.2 2.8,-6.133 8,-14.533 11.467,-18.666 3.333,-4.134 6.133,-8.267 6.133,-9.2 0,-0.8 -2.133,-3.867 -4.667,-6.667 -6.133,-6.8 -6.133,-12 -0.133,-23.733 2.533,-4.8 4.933,-10.934 5.333,-13.467 0.534,-3.333 3.467,-7.733 9.467,-14.533 6,-6.8 8.933,-11.334 9.467,-14.667 2.266,-12.8 2.8,-14.133 5.733,-15.6 1.6,-0.933 3.6,-2.133 4.4,-2.933 0.933,-0.934 3.6,-0.267 8.267,1.866 5.333,2.534 9.066,3.2 17.2,3.2 12,0 11.733,0.8 7.6,-16.266 -3.2,-13.067 -3.334,-20.4 -0.667,-36.134 2.133,-13.066 1.733,-17.066 -2.933,-26.933 -1.6,-3.733 -3.067,-9.067 -3.067,-12 0,-2.933 -0.933,-6.533 -2,-7.867 -1.333,-1.733 -2,-5.866 -2,-11.333 -0.133,-13.733 -2.4,-28 -5.6,-34.667 -4.133,-8.8 -21.867,-25.866 -41.067,-39.466 -9.2,-6.534 -20.133,-15.334 -24.266,-19.6 -6.667,-6.667 -11.734,-9.734 -11.734,-6.8 z"
       fill="#0f7b78"
       id="SE">
      <title
         id="title53">Suède</title>
    </path>
    <path
       d="m 741.116,671.009 c -9.858,0.248 -19.789,5.347 -20.901,14.449 -2.409,19.733 16.163,56.782 19.641,56.541 4.372,-0.298 24.013,-36.821 22,-56.176 -1.087,-10.458 -10.883,-15.061 -20.747,-14.814 z m 1.383,6.128 c 4.484,0 8.116,3.643 8.116,8.141 0,4.498 -3.632,8.141 -8.116,8.141 -4.484,0 -8.116,-3.643 -8.116,-8.141 0,-4.498 3.632,-8.141 8.116,-8.141 z"
       fill="#f07f1a"
       id="pin-SE">
      <title
         id="title86">Stockholm</title>
    </path>
  </g>
  <g
     id="g30">
    <path
       d="m 855.333,1603.73 c -3.333,2.14 -7.2,5.2 -8.533,6.67 -2.533,2.93 -2.533,2.93 4.133,9.33 7.467,7.2 9.2,10.8 7.2,14.8 -3.466,6.27 -0.8,10.27 4.8,7.74 3.734,-1.6 6.267,0.26 9.867,7.33 3.067,6 4.267,6.27 6.267,1.73 1.733,-3.73 4.533,-4.26 6.933,-1.33 5.067,6.13 5.467,-3.87 0.533,-15.87 -2,-4.66 -3.2,-9.46 -2.8,-10.66 0.8,-1.87 1.6,-1.87 7.6,0.53 7.334,2.93 13.334,3.47 13.334,1.33 0,-0.8 -1.467,-1.33 -3.334,-1.33 -2,0 -4.533,-1.47 -6.4,-3.47 -4.933,-5.86 -22.8,-17.2 -30.933,-19.73 -1.867,-0.53 -4.8,0.53 -8.667,2.93 z"
       fill="#0f7b78"
       id="AL-2">
      <title
         id="title52">Albanie</title>
    </path>
    <path
       d="m 914.8,1492.8 c -2.8,0.93 -9.6,2.4 -15.067,3.07 -6.133,0.8 -10.533,2 -11.466,3.33 -2.134,2.67 -8,4.8 -13.334,4.8 -4.266,0 -9.333,2.27 -16.4,7.33 -2,1.47 -6.666,2.94 -10.4,3.34 -6,0.53 -6.666,1.06 -7.6,4.53 -0.666,2.13 -2.533,5.47 -4.266,7.33 -1.867,1.87 -4,5.6 -4.8,8.27 -0.934,2.93 -2.8,5.47 -4.8,6.27 -8.934,4.13 0.933,27.73 12.8,30.93 6,1.6 5.733,3.47 -0.534,5.07 -5.333,1.33 -5.866,3.86 -1.866,9.73 l 3.066,4.53 18.534,0.8 c 13.866,0.67 20.666,1.6 26.533,3.74 9.867,3.46 24.267,11.33 29.2,15.86 l 3.6,3.47 v -3.47 c 0,-5.33 -6.8,-13.33 -17.2,-19.73 -15.333,-9.6 -20.267,-13.33 -19.467,-14.67 0.4,-0.8 2,-1.33 3.467,-1.33 2.667,0 3.467,-3.2 1.2,-4.67 -2,-1.2 -1.6,-6.8 0.667,-8.66 1.2,-0.94 3.6,-1.34 6,-0.8 5.2,0.93 5.2,-1.34 0,-2.54 -4.4,-0.93 -5.867,-2.93 -7.2,-9.73 -0.4,-2.53 -2,-6.13 -3.467,-8.27 -1.467,-2 -2.667,-5.06 -2.667,-6.53 0,-4.13 6.4,-16.13 8.534,-16.13 0.933,0 2.666,2.4 3.866,5.33 2,5.07 2.267,5.33 8,5.33 6.934,0 8.267,-1.33 10.134,-9.33 1.6,-7.33 3.2,-8.53 15.2,-11.33 15.733,-3.6 27.733,-4 37.466,-1.47 10.534,2.93 16,2.53 16.534,-1.33 0.666,-4.8 -3.6,-6.8 -18.4,-8.4 -7.734,-0.8 -17.867,-2.67 -22.4,-4.14 -9.867,-3.06 -16.134,-3.2 -23.467,-0.53 z"
       fill="#0f7b78"
       id="AL">
      <title
         id="title51">Albanie</title>
    </path>
    <path
       d="m 864.37129,1509.3701 c -9.858,0.25 -19.789,5.35 -20.901,14.45 -2.409,19.73 16.163,56.78 19.641,56.54 4.372,-0.3 24.013,-36.82 22,-56.18 -1.087,-10.46 -10.883,-15.06 -20.747,-14.81 z m 1.383,6.13 c 4.484,0 8.116,3.64 8.116,8.14 0,4.5 -3.632,8.14 -8.116,8.14 -4.484,0 -8.116,-3.64 -8.116,-8.14 0,-4.5 3.632,-8.14 8.116,-8.14 z"
       fill="#f07f1a"
       id="pin-AL">
      <title
         id="title85">Tirana</title>
    </path>
  </g>
  <g
     id="g31">
    <path
       d="m 994.4,1474 c -5.2,2.27 -7.067,5.6 -7.067,12.4 0,2.93 -0.8,6.93 -1.866,9.07 -4.267,8 2.4,21.86 10.266,21.86 1.2,0 5.337,-2.66 9.467,-6 9.33,-7.6 14.67,-9.46 30.27,-10.8 10,-0.66 12,-1.2 10,-2.4 -9.87,-6 -14.67,-9.86 -18.67,-15.6 -4.27,-5.86 -5.33,-6.53 -9.73,-6.53 -2.8,0 -6.27,-0.93 -7.6,-2 -3.2,-2.53 -9.47,-2.53 -15.07,0 z"
       fill="#0f7b78"
       id="TR-2">
      <title
         id="title50">Turquie</title>
    </path>
    <path
       d="m 1207.07,1472.8 c -0.4,0.4 -9.07,1.2 -19.34,1.87 -14.93,0.93 -20.66,1.86 -30.53,5.06 -17.87,6 -32.8,13.87 -39.73,21.07 l -5.87,6.27 -7.2,-0.94 c -20.8,-2.8 -26.53,-3.33 -35.33,-3.46 -5.34,0 -9.74,0.53 -9.74,1.06 0,2.14 5.07,5.87 10.27,7.6 8,2.8 7.2,5.34 -2.67,8.54 -5.86,2 -8.93,3.73 -9.33,5.46 -0.8,3.07 -2.93,3.34 -31.6,5.2 -25.47,1.6 -35.6,4 -42.133,10.14 -3.6,3.46 -4.534,5.33 -4.534,9.33 v 5.07 l 10,-0.8 c 10.797,-0.94 12.667,0 9.467,4.66 -3.067,4.27 -2.667,8.14 1.2,11.74 3.87,3.73 4.27,7.6 1.07,13.06 -2.27,3.87 -2.27,4.14 0,6.67 2.93,3.2 2.8,4 -0.67,6.8 -3.6,2.93 -2.533,6.27 2.53,8.27 6.14,2.26 7.6,7.6 3.47,12.13 -2.13,2.4 -1.87,2.8 3.2,8.13 2.93,3.07 6.13,7.07 7.07,8.8 1.46,2.94 2.13,3.07 9.46,2.27 l 7.87,-0.93 6.27,6 c 3.6,3.2 7.86,6.13 9.73,6.26 2.27,0.4 4.8,2.8 8.27,8 6,9.07 10.53,11.34 18.93,9.07 7.2,-1.87 13.87,-7.07 14.93,-11.6 1.74,-7.2 4.4,-10.93 8,-10.93 8.94,0 34,11.33 46.27,20.93 7.47,5.87 8.13,6 14.8,5.33 11.6,-1.2 22.4,-6.53 37.07,-18.4 5.33,-4.26 15.6,-4.93 21.73,-1.33 6.13,3.6 6.53,3.6 13.07,-1.07 8,-5.6 10.93,-6.13 14.13,-2.93 3.73,3.73 3.6,5.2 -1.33,12.53 -2.8,4.4 -3.87,7.34 -3.6,10.4 0.53,6.27 3.06,6.14 7.6,-0.26 3.2,-4.27 4.13,-7.07 4.13,-11.74 0,-10.8 6.13,-15.06 14.67,-10.13 4.66,2.67 9.6,2.53 22.53,-0.93 l 11.07,-2.94 12.93,2.94 c 16.4,3.73 17.33,3.73 31.6,-1.07 16.53,-5.73 26.8,-8 42,-9.33 8.4,-0.67 14.4,-1.87 17.07,-3.47 3.86,-2.27 4.4,-2.27 8,-0.13 3.46,2 4.26,2.13 8.8,0.13 3.86,-1.6 9.6,-2 26.8,-1.73 14.4,0.13 22.53,-0.27 23.46,-1.2 1.6,-1.6 -2.53,-8.27 -8.13,-13.07 -3.07,-2.67 -3.2,-3.07 -1.47,-7.07 2.4,-5.86 1.07,-22 -3.06,-35.73 -3.34,-11.47 -2.94,-15.07 1.73,-15.07 3.6,0 6.67,-3.6 6.67,-7.86 0,-4.94 -1.87,-6.27 -9.6,-7.07 -8,-0.93 -9.47,-2.13 -13.2,-11.2 -2.54,-6.53 -2.8,-8 -1.34,-12 1.47,-4 1.34,-5.07 -1.06,-8.93 -1.47,-2.27 -6,-7.6 -10.14,-11.6 l -7.46,-7.34 -10.67,0.27 c -12.67,0.27 -22.27,2.93 -33.6,9.07 -11.6,6.26 -23.6,9.2 -33.6,8 -12.8,-1.47 -22,-1.34 -32.53,0.53 -12.14,2.13 -24.67,0.53 -40.14,-5.2 -5.46,-2 -13.46,-4.4 -17.6,-5.2 -6.66,-1.47 -8.4,-2.53 -13.6,-8.4 -5.2,-5.87 -6.26,-6.67 -8.13,-5.07 -4.8,4 -15.73,-1.2 -20.13,-9.73 -1.74,-3.33 -6.67,-4.93 -8.8,-2.8 z"
       fill="#0f7b78"
       id="TR">
      <title
         id="title49">Turquie</title>
    </path>
    <path
       d="m 1179.5993,1490.4266 c -9.86,0.25 -19.79,5.35 -20.91,14.45 -2.4,19.73 16.17,56.78 19.65,56.54 4.37,-0.3 24.01,-36.82 22,-56.18 -1.09,-10.46 -10.89,-15.06 -20.75,-14.81 z m 1.38,6.13 c 4.48,0 8.11,3.64 8.11,8.14 0,4.5 -3.63,8.14 -8.11,8.14 -4.48,0 -8.12,-3.64 -8.12,-8.14 0,-4.5 3.64,-8.14 8.12,-8.14 z"
       fill="#f07f1a"
       id="pin-TR">
      <title
         id="title84">Ankara</title>
    </path>
  </g>
  <g
     id="g19">
    <path
       d="m 984,1243.47 c -8,6.26 -31.867,15.2 -40.4,15.2 -3.067,0 -5.867,-1.07 -7.867,-2.94 -2.666,-2.53 -4.933,-3.06 -12.8,-3.2 -5.333,-0.13 -14,-0.93 -19.333,-1.86 l -9.6,-1.74 -5.733,4.27 c -3.067,2.27 -7.6,5.2 -10,6.27 -5.334,2.4 -15.067,16.66 -24.267,35.86 -7.2,14.8 -10.667,18.67 -20.933,23.87 -3.867,2 -7.067,4 -7.067,4.53 0,0.67 1.867,2.8 4,4.94 2.267,2.13 4.667,6.13 5.333,8.8 0.8,2.93 3.067,6.4 5.334,8.13 10.8,8.13 11.066,8.67 11.466,13.6 0.267,2.67 0.8,5.47 1.334,6.27 1.733,2.8 11.866,6.53 18,6.53 11.466,0 17.733,4.27 13.066,8.93 -0.933,0.94 0,2.8 3.467,6.4 2.533,2.8 5.067,6.67 5.6,8.54 1.067,4.26 2.667,5.46 7.733,5.46 2.267,0 7.734,1.34 12,2.8 7.067,2.54 9.867,2.8 24.667,2.14 18.933,-0.94 25.867,-2.54 40,-9.74 8.8,-4.53 11.067,-5.2 19.333,-5.06 11.867,0 26.537,4.66 29.597,9.33 1.74,2.67 3.07,3.2 6.8,2.93 5.6,-0.53 6,-1.2 8.8,-16.13 2.14,-11.47 7.2,-25.07 9.87,-26.8 0.67,-0.4 2.8,0.53 4.8,2 l 3.47,2.67 4,-2.8 c 4.13,-2.94 6.26,-7.87 4.8,-11.34 -1.07,-2.93 -10,-2.53 -14.8,0.67 -8.14,5.33 -20.54,2.27 -23.2,-5.73 -0.8,-2.4 -2.4,-13.6 -3.47,-24.67 -1.07,-11.2 -2.67,-22.93 -3.47,-26 -2.8,-10.53 -20.53,-42.27 -28.397,-50.67 -3.733,-4 -8.133,-4.53 -12.133,-1.46 z"
       fill="#0f7b78"
       id="RO">
      <title
         id="title46">Roumanie</title>
    </path>
    <path
       d="m 971.1574,1307.5934 c -9.858,0.25 -19.789,5.35 -20.901,14.45 -2.409,19.73 16.163,56.78 19.641,56.54 4.372,-0.3 24.013,-36.82 22,-56.18 -1.087,-10.46 -10.883,-15.06 -20.747,-14.81 z m 1.383,6.13 c 4.484,0 8.116,3.64 8.116,8.14 0,4.5 -3.632,8.14 -8.116,8.14 -4.484,0 -8.116,-3.64 -8.116,-8.14 0,-4.5 3.632,-8.14 8.116,-8.14 z"
       fill="#f07f1a"
       id="pin-RO">
      <title
         id="title83">Bucarest</title>
    </path>
  </g>
  <g
     id="g6">
    <path
       d="m 429.2,1026.53 c -6,1.47 -6.933,2.4 -8.533,8.14 -1.467,5.33 -0.134,10.66 2.666,10.66 1.6,0 7.6,10.27 8.667,15.07 0.8,3.07 0.133,4.4 -4.4,8.93 -4,4 -6.4,5.34 -9.467,5.34 -9.2,0 -13.466,-5.87 -13.466,-18.67 0,-4.4 -0.534,-8 -1.2,-8 -0.534,0 -2.534,3.73 -4.134,8.27 -1.6,4.66 -5.733,13.73 -8.933,20.26 -3.2,6.54 -5.467,12.27 -4.8,12.8 0.533,0.54 4.8,1.74 9.467,2.67 4.533,0.93 8.666,2.27 9.066,2.8 0.267,0.67 -2,2.4 -5.066,4.13 l -5.734,2.94 6,0.8 c 3.6,0.4 9.2,2.8 14,5.73 4.4,2.67 10,5.6 12.534,6.4 4,1.47 4.8,1.33 6.4,-0.8 2.133,-3.07 2.266,-10 0.133,-16.93 -1.867,-6.27 -0.8,-7.47 8.533,-10.94 6.267,-2.26 15.734,-11.06 15.734,-14.53 0,-1.07 -1.734,-3.47 -4,-5.33 -2.134,-2 -4,-4.54 -4,-5.6 0,-1.07 2.933,-5.34 6.666,-9.34 7.334,-8.13 9.067,-12.53 6.8,-17.46 -3.066,-6.94 -19.466,-10.54 -32.933,-7.34 z"
       fill="#0f7b78"
       id="NL">
      <title
         id="title45">Pays-Bas</title>
    </path>
  </g>
  <g
     id="g2">
    <path
       d="m 138.53,786.27 c -1.2,2.67 -3.2,9.33 -4.67,14.8 -1.33,5.6 -2.67,10.13 -2.93,10.27 -0.13,0.27 -2.27,1.33 -4.53,2.53 -6.13,3.07 -8.67,7.47 -8.13,14.4 0.4,5.07 0.93,6 4.8,7.6 4.93,2.27 5.2,3.07 1.73,7.87 -6.27,8.93 -10.93,20.53 -10.53,26 0.4,4.93 0,5.6 -2.93,6.27 -4.27,1.07 -4.93,4.67 -1.33,6.67 4.4,2.27 9.73,-0.53 17.33,-9.07 3.6,-4.13 7.07,-7.07 7.47,-6.53 0.53,0.53 -1.2,5.6 -3.73,11.2 -2.67,5.73 -5.2,12.4 -5.73,14.67 -1.2,5.6 0.13,9.87 2.8,8.8 1.2,-0.4 3.33,-0.13 4.93,0.67 1.6,0.8 5.33,1.73 8.27,1.87 l 5.33,0.4 0.13,7.33 c 0.13,4 0.67,9.2 1.2,11.6 0.67,3.2 -0.13,6.4 -3.87,14.8 -2.67,5.87 -4.8,11.73 -4.8,13.07 0,2.4 6.27,9.87 8.27,9.87 0.53,0 1.07,-0.8 1.07,-1.87 0,-1.07 0.93,-2.93 2.13,-4 1.87,-1.87 2.4,-1.87 5.87,-0.13 6.13,3.2 10.27,2.53 15.47,-2.67 3.87,-4 5.6,-4.67 10.67,-4.67 7.07,0 8.93,2.67 4.8,7.07 -10.8,11.87 -10.93,23.73 -0.13,28 3.33,1.33 5.6,3.33 6.53,5.6 1.87,4.93 1.6,16 -0.53,21.06 -1.87,4.67 -1.07,8.54 2.4,11.47 2.8,2.4 2.67,7.2 -0.27,9.87 -3.2,2.93 -5.73,2.8 -12.27,-0.54 -6.8,-3.6 -15.47,-2.66 -21.33,2.27 -4.93,4.13 -5.07,6.27 -0.67,8.27 1.87,0.93 3.33,2.66 3.33,4.13 0,1.47 0.67,3.07 1.33,3.47 4.13,2.53 -1.6,18.13 -9.2,25.46 -2.27,2.14 -7.73,5.47 -12.4,7.34 -8.27,3.33 -8.4,3.46 -8.8,9.2 -0.53,7.06 1.07,8.93 5.33,6.13 4.13,-2.67 7.33,-2.8 19.6,-0.93 9.2,1.46 17.47,5.33 17.47,8.26 0,2 6.4,1.34 11.07,-0.93 2.4,-1.2 6.8,-4.27 10,-6.8 3.2,-2.67 6,-4.4 6.4,-4 1.2,1.07 -4.4,11.07 -9.07,16.4 -5.07,5.73 -10.93,8.53 -18,8.53 -9.6,0 -15.2,2.54 -23.07,10.54 -8.93,9.06 -23.07,27.73 -22.4,29.46 0.27,0.8 4,-0.4 8.53,-2.53 11.2,-5.33 14.93,-5.87 21.73,-3.47 8.53,2.94 9.73,2.54 14.13,-4.26 6.93,-11.07 16,-14.94 24.4,-10.54 2,1.07 5.87,2.27 8.53,2.8 4.13,0.8 4.93,0.54 5.6,-1.73 1.2,-3.73 3.73,-4.13 36.13,-5.47 18,-0.8 30.4,-2 34.67,-3.33 7.07,-2.13 14.4,-6.93 17.47,-11.2 1.6,-2.4 1.47,-2.67 -1.2,-3.47 -1.6,-0.4 -4.93,-0.8 -7.33,-0.8 -6,0 -12.27,-3.46 -12.27,-6.66 0,-1.6 1.6,-3.47 4,-4.67 2.4,-1.2 4,-3.07 4,-4.67 0,-1.33 2.27,-4.26 4.93,-6.26 10.4,-7.87 16.13,-14.4 17.73,-20.27 3.73,-14.27 -4,-22.93 -20.8,-23.07 -5.07,0 -7.87,0.67 -11.07,3.07 -4,2.93 -4.27,2.93 -8.8,0.8 -5.6,-2.67 -5.73,-4 -1.33,-9.73 8.4,-10.94 4,-21.07 -11.73,-26.8 -9.47,-3.47 -9.6,-4.27 -3.47,-12.54 2.93,-3.86 5.73,-8.66 6.13,-10.4 1.2,-5.07 -2.53,-9.73 -12.53,-15.07 -14,-7.6 -14.4,-8.27 -23.87,-41.6 -2.53,-9.07 -9.6,-17.6 -19.07,-23.2 -5.07,-2.93 -8.4,-3.73 -18.4,-4.4 -18.67,-1.2 -24.27,-6.4 -11.33,-10.67 6.93,-2.27 14.93,-6.4 14.93,-7.73 0,-0.67 -2.4,-0.93 -5.33,-0.53 -7.6,1.07 -7.07,-2.27 1.47,-7.6 3.73,-2.4 8.8,-7.2 11.47,-10.53 5.6,-7.33 15.6,-27.73 18,-36.4 2.4,-9.2 1.33,-9.73 -16,-9.6 -16.13,0 -25.33,1.73 -36.53,6.8 -10.93,4.8 -12.4,3.2 -6.67,-8 2.4,-4.53 4.27,-9.73 4.27,-11.6 0,-3.73 3.73,-8.13 15.07,-17.73 8,-6.8 9.6,-10.8 4.67,-12.13 -1.73,-0.4 -12,-0.8 -22.8,-0.8 h -19.73 z"
       fill="#0f7b78"
       id="GB">
      <title
         id="title44">Royaume-Unis</title>
    </path>
    <path
       d="m 247.38702,1031.6976 c -9.858,0.25 -19.789,5.35 -20.901,14.45 -2.409,19.73 16.163,56.78 19.641,56.54 4.372,-0.3 24.013,-36.82 22,-56.18 -1.087,-10.46 -10.883,-15.06 -20.747,-14.81 z m 1.383,6.13 c 4.484,0 8.116,3.64 8.116,8.14 0,4.5 -3.632,8.14 -8.116,8.14 -4.484,0 -8.116,-3.64 -8.116,-8.14 0,-4.5 3.632,-8.14 8.116,-8.14 z"
       fill="#f07f1a"
       id="pin-GB">
      <title
         id="title81">Londres</title>
    </path>
  </g>
  <g
     id="g34">
    <path
       d="m 36.8001,1474.53 c -1.7334,1.07 -1.7334,2.54 0.2666,11.07 2.8,11.87 2.8,20.67 0.2667,36.4 -2.8,16.8 -6.6667,30 -12,40.67 -2.6667,5.2 -4.6667,11.33 -4.6667,13.86 0,4.14 0.4,4.54 5.8667,6 6.6667,1.6 14.6667,9.47 13.6,13.2 -0.9333,2.94 -3.4667,25.07 -3.4667,30.4 0,6.27 2.6667,8.67 12,10.67 7.2,1.47 8.9334,1.47 12.1334,-0.27 4.5333,-2.26 6,-4.8 6.9333,-12.26 0.4,-3.07 2.2667,-8.67 4.1334,-12.27 4,-7.73 4.2666,-10.53 1.3333,-16.27 -2,-3.86 -1.8667,-4.4 1.3333,-10.66 1.8667,-3.6 3.4667,-8.14 3.4667,-10 0,-1.74 -2.4,-7.47 -5.4667,-12.54 -2.9333,-5.2 -5.0666,-10.13 -4.8,-11.06 0.4,-1.07 2.8,-2.14 5.3333,-2.67 6.1334,-1.2 8.1334,-3.73 7.2001,-9.33 -0.5334,-3.07 0.1333,-6.14 1.8666,-9.34 1.6,-3.06 2.5333,-7.46 2.5333,-12.4 0,-7.6 1.3334,-11.06 8.1334,-23.06 3.3333,-5.87 2.6667,-14.27 -1.4667,-17.6 -4,-3.2 -11.3333,-3.07 -15.8666,0.4 -5.4667,4 -21.0667,3.33 -25.8667,-1.2 -3.2,-3.07 -9.4667,-3.87 -12.8,-1.74 z"
       fill="#0f7b78"
       id="PT">
      <title
         id="title43">Portugal</title>
    </path>
    <path
       d="m 46.484436,1503.6678 c -9.8574,0.25 -19.789,5.35 -20.9007,14.45 -2.4088,19.73 16.1635,56.78 19.6407,56.54 4.3729,-0.3 24.0136,-36.82 22.0001,-56.18 -1.087,-10.46 -10.8827,-15.06 -20.7463,-14.81 z m 1.3835,6.13 c 4.484,0 8.1157,3.64 8.1157,8.14 0,4.5 -3.6317,8.14 -8.1157,8.14 -4.484,0 -8.1157,-3.64 -8.1157,-8.14 0,-4.5 3.6317,-8.14 8.1157,-8.14 z"
       fill="#f07f1a"
       id="pin-PT">
      <title
         id="title80">Lisbonne</title>
    </path>
  </g>
  <g
     id="g1">
    <path
       d="m 61.3334,943.067 c -9.0667,4.933 -11.0667,6.666 -13.6,11.6 -1.6,3.333 -2.9334,6.533 -2.9334,7.2 -0.1333,1.6 12.9334,-0.267 17.4667,-2.667 3.8667,-2 12.1333,-13.333 13.7333,-18.933 1.3334,-4.4 -2.2666,-3.734 -14.6666,2.8 z"
       fill="#0f7b78"
       id="IE-3">
      <title
         id="title42">Irlande</title>
    </path>
    <path
       d="m 90,946.933 c -6.1333,3.067 -29.3333,24.534 -29.3333,27.2 0,1.734 9.3333,13.867 10.6667,13.867 0.5333,0 3.4666,-3.067 6.5333,-6.667 3.0667,-3.733 6.5333,-6.666 7.4667,-6.666 1.0666,0 2.8,1.733 3.8666,3.866 3.2,6 9.7334,10.8 14.8,10.8 5.467,0 11.733,-5.733 14.133,-12.933 1.467,-4.533 1.334,-5.067 -1.866,-7.6 -2.4,-2 -4,-5.067 -5.067,-10.133 C 109.467,950.533 104.133,944 99.0667,944 97.3334,944 93.3334,945.333 90,946.933 Z"
       fill="#0f7b78"
       id="IE-2" />
    <path
       d="m 44.9334,980.267 0.4,5.733 H 36.8 c -5.6,0 -8.8,0.533 -9.0666,1.6 -0.9334,2.533 -3.6,2.133 -6.4,-0.933 -3.6,-4 -8.2667,-3.334 -13.46671,1.866 -2.53333,2.534 -4.53333,5.067 -4.53333,5.734 0,0.666 2.53333,1.733 5.73333,2.533 8.40001,1.867 8.40001,6 -0.26667,15.6 -3.73333,4 -6.8,7.6 -6.8,8.13 0,1.87 6.26667,3.74 16.93338,4.94 17.2,1.86 19.0666,4.66 8.4,12.53 -4.6667,3.47 -6.6667,5.87 -6.6667,8 0,3.87 1.7333,5.07 8.5333,6 6.9334,0.93 7.4667,3.33 1.2,5.33 -12.6666,4.14 -17.7333,6.94 -18.5333,10.54 -0.4,1.86 -0.9333,4.8 -1.3333,6.53 -0.2667,1.6 -2.80004,5.33 -5.33338,8.27 l -4.799996,5.33 6.133336,-0.8 c 5.20004,-0.8 6.26664,-0.53 6.93334,1.6 0.5333,1.47 2,3.6 3.4667,4.93 1.3333,1.34 2.4,3.6 2.4,4.94 0,1.6 0.9333,2.66 2.4,2.66 3.4666,0 18,-7.2 20.8,-10.53 1.6,-1.73 4.1333,-2.8 6.6666,-2.8 4.2667,0 6.8,-1.33 16.6667,-8.8 2.9333,-2.4 7.7333,-4.67 10.4,-5.2 2.6666,-0.53 6.4,-2 8.1333,-3.47 2.9334,-2.26 3.4667,-2.26 7.2,-0.4 2.2667,1.2 4.5334,1.6 5.2,0.94 2.9334,-2.94 6.8,-18 7.467,-29.2 1.2,-20.8 -3.6,-39.74 -12.9336,-50.537 -2.8,-3.2 -5.3334,-6.666 -5.7334,-7.6 -0.5333,-1.066 -3.0666,0.8 -7.4666,5.6 l -6.8,7.334 L 63.2,987.6 C 50.6667,973.733 44.1334,971.2 44.9334,980.267 Z"
       fill="#0f7b78"
       id="IE" />
    <path
       d="m 69.050514,985.85785 c -9.8574,0.248 -19.789,5.347 -20.9007,14.44895 -2.4088,19.732 16.1635,56.782 19.6407,56.542 4.3729,-0.3 24.013496,-36.82 22.000496,-56.177 -1.087,-10.45795 -10.882996,-15.06095 -20.746696,-14.81395 z m 1.3835,6.128 c 4.484,0 8.116,3.643 8.116,8.14095 0,4.498 -3.632,8.141 -8.116,8.141 -4.484,0 -8.1157,-3.643 -8.1157,-8.141 0,-4.49795 3.6317,-8.14095 8.1157,-8.14095 z"
       fill="#f07f1a"
       id="pin-IE">
      <title
         id="title79">Dublin</title>
    </path>
  </g>
  <g
     id="g33">
    <path
       d="m 55.3333,1413.73 c -1.8667,0.94 -4.1333,3.34 -5.0667,5.2 -2.6666,5.74 -8,9.07 -14.1333,9.07 -6.1333,0 -7.7333,0.8 -9.8667,4.8 -1.2,2.27 -0.6666,4.4 3.0667,11.6 2.4,4.93 4.8,12 5.3333,15.73 l 0.9334,6.8 7.4666,-0.8 c 6.8,-0.8 7.7334,-0.53 11.0667,2.67 4.6667,4.53 12.5333,5.6 18.5333,2.53 5.6,-2.8 18.6667,-4.13 22.2667,-2.26 1.6,0.93 3.3333,3.86 4.2667,7.46 0.8,3.34 2,6.4 2.8,6.8 2.667,1.6 1.2,6.67 -4.2667,14.94 -4.8,7.6 -5.6,9.73 -6.4,18.93 -0.5333,6.27 -1.7333,11.73 -3.0667,13.6 -1.3333,1.73 -2.2666,5.73 -2.2666,8.93 0,6 -2.4,11.87 -5.8667,14.8 -3.0667,2.54 -2.6667,6 1.2,12.14 4.2667,6.66 4.2667,10.66 -0.1333,18.26 l -3.6,6 3.0666,7.2 2.9334,7.34 -3.7334,5.33 c -9.2,12.67 -8.8,14.93 3.2,21.07 9.6,4.93 14.2667,9.86 22.8004,24.4 4.533,7.6 8.266,12.4 10.8,13.73 3.733,1.87 4,1.87 6.266,-1.47 6.667,-9.46 10.134,-12.53 16.8,-14.53 10.534,-3.2 29.2,-5.87 46.934,-6.67 24.666,-1.2 23.6,-0.93 34.266,-12 8,-8.4 12.534,-11.6 23.6,-16.53 0.934,-0.53 2.934,-3.87 4.267,-7.47 1.333,-3.73 6.133,-11.2 10.667,-16.66 9.333,-11.6 9.466,-12.4 2.533,-27.47 l -4.267,-9.33 11.734,-16.94 c 6.533,-9.33 14.266,-20.93 17.333,-25.86 6.267,-10.54 10.533,-13.74 22.933,-17.87 15.867,-5.2 28.267,-11.73 35.734,-19.07 6.933,-6.66 7.2,-7.33 7.2,-13.73 0,-8 -1.467,-9.6 -5.334,-5.73 -3.333,3.33 -15.066,3.73 -22.4,0.53 -2.666,-1.07 -7.066,-1.87 -9.6,-1.6 -4.133,0.4 -4.8,-0.13 -6.933,-4.67 L 306,1448 h -13.733 c -28.8,0 -49.734,-4.53 -59.467,-12.8 -2.8,-2.53 -6.8,-5.07 -8.8,-5.87 -4,-1.46 -23.867,-3.2 -64,-5.33 -17.467,-0.8 -28.4,-2.13 -35.333,-3.87 -7.6,-2.13 -14.4,-2.8 -28.0004,-2.8 -14.9333,-0.13 -18.9333,-0.53 -23.3333,-2.66 -6.1333,-2.94 -13.2,-3.34 -18,-0.94 z"
       fill="#0f7b78"
       id="ES">
      <title
         id="title41">Espagne</title>
    </path>
    <path
       d="m 189.116,1487.01 c -9.858,0.25 -19.789,5.35 -20.901,14.45 -2.409,19.73 16.163,56.78 19.641,56.54 4.372,-0.3 24.013,-36.82 22,-56.18 -1.087,-10.46 -10.883,-15.06 -20.747,-14.81 z m 1.383,6.13 c 4.484,0 8.116,3.64 8.116,8.14 0,4.5 -3.632,8.14 -8.116,8.14 -4.484,0 -8.116,-3.64 -8.116,-8.14 0,-4.5 3.632,-8.14 8.116,-8.14 z"
       fill="#f07f1a"
       id="pin-ES">
      <title
         id="title78">Madrid</title>
    </path>
  </g>
  <g
     id="g9">
    <path
       d="m 1009.33,1.86658 -4,1.73333 5.07,3.06665 c 2.67,1.60004 4.93,3.60004 4.93,4.40004 0,0.8 -2.13,3.6 -4.66,6.2667 -3.74,3.8666 -5.07,6.5333 -6.14,13.2 -1.73,9.1999 -5.463,14.8 -11.863,17.4666 -6.934,2.9333 -8.4,1.2 -7.334,-8.6666 0.8,-7.3334 0.667,-8.8 -1.2,-9.4667 -2.666,-1.0667 -2.8,-4.2667 0,-7.3333 1.2,-1.3334 2.4,-4.9334 2.8,-8.1334 1.2,-8.93335 -1.6,-5.33331 -13.733,17.6 -15.333,29.0667 -23.867,43.3334 -26.4,43.7333 -1.467,0.2667 -2.8,-1.0666 -4.133,-4.2666 -2.667,-6.2667 -2.534,-11.3334 0.4,-16.1333 1.466,-2.2667 3.866,-8.1334 5.466,-13.0667 1.734,-5.0667 6,-13.4667 9.467,-18.6667 4.667,-7.0666 6.133,-10 5.067,-11.2 -2.267,-2.79999 -5.867,-2 -7.467,1.6 -2.133,4.6667 -3.733,4.1333 -6.933,-2 -4.8,-9.46664 -9.734,-8.39999 -11.334,2.4 -0.933,6.5333 -3.6,12.6667 -7.066,16.6667 -1.334,1.4667 -2,4.5333 -1.734,8.9333 0.267,7.6 -0.666,8 -7.333,3.8667 l -4.533,-2.6667 -3.334,3.6 c -2.133,2.2667 -3.333,5.2 -3.333,8 0,3.2 -1.067,5.4667 -4.267,8.4 l -4.266,4 2.8,8.4 c 1.466,4.6667 2.533,8.8 2.133,9.3333 -0.267,0.6667 -2.133,1.0667 -4.133,1.0667 -2,0 -4.8,0.9333 -6.134,2 -3.6,2.6667 -4.8,2.5334 -4.8,-0.5333 0,-1.4667 -2,-4.1333 -4.4,-6 -3.6,-2.8 -5.333,-3.2 -9.333,-2.5334 -4.267,0.6667 -4.933,0.4001 -4.933,-2 0,-2.2666 -2.267,-4.2666 -5.2,-4.2666 -1.334,0 0.533,18.9333 2.266,22.2666 2.134,4 2,5.6001 -0.533,6.6667 -1.6,0.5331 -3.333,-0.5333 -5.733,-3.4667 -4.934,-6 -11.334,-6.7999 -20,-2.4 -3.6,1.8667 -8.267,3.3334 -10.267,3.2 -3.867,-0.2666 -3.867,-0.1333 -3.867,6.6668 0.134,5.867 0.8,7.733 4,11.067 4.534,4.8 3.6,6.533 -2.4,4.133 -8.933,-3.6 -9.466,-3.467 -11.866,3.467 -2.267,6.133 -8.667,14.666 -10,13.2 -0.4,-0.267 0.266,-3.467 1.466,-7.067 4.934,-14.667 7.867,-39.0667 4.8,-39.0667 -0.666,0 -1.333,0.2666 -1.333,0.6666 0,0.4 -1.2,5.3334 -2.8,10.9331 -2.533,9.467 -15.733,36.667 -18.667,38.534 -0.666,0.4 -2.933,-1.067 -5.066,-3.334 -3.067,-3.2 -4.934,-4.133 -9.067,-4.133 -2.8,0 -6.4,0.933 -7.867,2 -3.6,2.4 -4.533,1.467 -4.533,-4.533 0,-3.6 -0.4,-4.267 -1.333,-2.8 -0.667,1.066 -1.334,4.533 -1.334,7.6 0,5.866 -3.333,11.066 -7.2,11.066 -2.533,0 -10.133,6.4 -10.133,8.534 0,0.933 1.2,2.8 2.667,4.133 1.6,1.333 2.533,3.2 2.133,4.133 -0.4,0.934 0.267,2.4 1.333,3.2 3.334,2.934 2,4.934 -3.733,5.867 -6.267,1.067 -25.333,9.6 -30.267,13.733 -3.6,2.934 -2.933,5.734 1.334,5.734 2.933,0 5.2,4.266 2.666,5.066 -0.933,0.267 -3.2,2 -5.2,3.6 -3.066,2.667 -3.333,3.467 -1.866,5.6 3.2,4.667 3.2,5.867 0.266,9.067 -2.933,3.2 -3.066,3.467 -0.8,5.867 3.067,3.333 2.4,6.533 -2,9.733 -2.4,1.867 -7.2,2.933 -17.066,3.867 -13.2,1.2 -21.467,3.733 -21.467,6.666 0,2.8 4.667,2.8 10.133,-0.133 4.8,-2.667 6.267,-2.933 9.067,-1.6 6.267,2.8 2.933,8.267 -5.2,8.267 -2.933,0 -3.467,0.533 -3.067,2.933 0.4,2.8 1.067,3.067 7.334,2.667 3.866,-0.267 7.2,0.133 7.733,1.066 1.467,2.4 -4.533,13.334 -7.333,13.334 -1.334,0 -2.934,-0.667 -3.334,-1.334 -0.4,-0.8 -1.866,-1.333 -3.2,-1.333 -1.333,0 -4,-1.333 -6,-2.8 -3.2,-2.533 -4.133,-2.667 -6.8,-1.2 -4.533,2.4 -10.4,8.933 -9.466,10.4 0.4,0.667 3.6,1.733 7.066,2.133 13.334,1.867 20.4,5.467 20.4,10.4 0,3.2 -1.466,3.067 -7.6,-0.533 -3.733,-2.267 -7.066,-3.067 -12.8,-2.933 -6.8,0.133 -8.266,0.666 -12,4.266 -2.4,2.4 -5.333,4.267 -6.4,4.267 -2.133,0 -7.866,5.333 -7.866,7.333 0,0.667 1.066,2.267 2.266,3.734 2.267,2.4 2.267,2.666 -0.266,4.4 -2.534,1.866 -2.534,2.133 -0.267,3.333 3.2,1.867 2.8,3.733 -0.933,4.667 -2.8,0.666 -3.067,1.2 -1.867,3.2 1.733,2.666 -0.4,6.666 -3.6,6.666 -2.133,0 -12.667,7.734 -12.667,9.334 0,0.8 6,1.333 15.334,1.333 8.4,0 15.333,0.533 15.333,1.2 0,2 -15.067,14.8 -18.4,15.733 -1.733,0.4 -4.533,0 -6.267,-0.933 -2.666,-1.467 -3.733,-1.333 -6.666,0.533 -4.267,2.8 -4.267,5.2 0.133,10.8 4.4,5.867 3.2,8 -2.933,5.067 -6.267,-3.067 -8.534,-1.467 -11.867,8.133 l -2.667,7.6 3.067,5.334 c 3.733,6.4 3.067,7.866 -2.933,6.533 -8,-1.733 -10.4,2.133 -5.067,8.267 2.8,3.333 6.533,2.933 11.733,-0.934 2.4,-1.866 4.667,-3.333 5.067,-3.333 4.533,0 -9.467,16.533 -22.533,26.667 -4,3.066 -7.334,6.4 -7.334,7.333 0,0.933 -2.4,3.867 -5.333,6.533 -2.933,2.667 -5.333,5.067 -5.333,5.334 0,0.4 2.266,0.8 4.933,1.066 6.267,0.534 7.067,2.934 1.867,5.734 -2.4,1.2 -4.134,3.066 -4.134,4.666 0,2.934 -6.4,8.4 -8.533,7.067 -0.8,-0.533 -2.533,-2.267 -3.867,-4 -3.066,-3.867 -4,-3.867 -5.6,-0.133 -0.8,1.6 -3.333,3.6 -5.866,4.4 -5.734,1.866 -8.934,5.866 -11.467,14.266 -1.067,3.6 -3.2,8.667 -4.8,11.2 -2.133,3.6 -2.4,4.534 -0.8,4.534 3.467,0 5.067,3.333 2.933,6.133 -1.066,1.333 -2,2.933 -2,3.467 -0.133,3.066 15.067,-1.867 18.534,-6.134 1.6,-1.866 1.333,-2.133 -1.734,-2.133 -4.533,0 -4.4,-2.667 0.267,-6.933 5.867,-5.467 10,-7.734 13.867,-7.734 4.4,0 6.4,3.2 6.4,10.534 0,5.6 -1.334,7.6 -8.534,12.533 -1.866,1.333 -4,4.533 -4.8,7.467 -1.466,5.866 -5.333,8.133 -13.466,8.133 -4.934,0 -5.2,0.133 -4.4,3.333 0.8,3.2 0.533,3.334 -5.2,3.334 -7.067,0 -8.267,-1.334 -8.267,-8.667 0,-6.133 -2.8,-7.6 -8,-4.133 -2.8,1.866 -3.067,2.533 -1.733,4.8 1.466,2.266 1.066,3.2 -2.267,6.666 -2.133,2.134 -8.133,6.267 -13.467,8.934 l -9.466,4.933 2.4,4 c 4.4,7.333 1.866,14.533 -3.467,10.133 -3.067,-2.533 -4,-0.533 -1.467,3.334 1.2,1.866 1.867,4 1.467,4.666 -0.4,0.8 -5.867,1.334 -12.133,1.334 h -11.2 l 0.8,3.466 0.933,3.467 -14.533,-0.267 c -18,-0.533 -20.534,-0.4 -20.534,1.334 0,0.666 2.4,1.333 5.2,1.333 3.867,0 6.8,1.2 11.067,4.4 7.067,5.333 8,10.267 3.333,16.133 -4.4,5.467 -7.6,4 -7.6,-3.6 0,-6.133 -1.733,-8.933 -5.6,-8.933 -3.066,0 -2.933,0.267 0.267,5.6 3.067,5.067 3.467,10.4 0.8,10.4 -2,0 -6.133,-7.6 -6.133,-11.2 0,-2.933 -1.734,-2.667 -4.667,0.533 -2.133,2.4 -2.267,3.067 -0.667,6 0.934,1.867 1.334,3.734 0.8,4.267 -0.533,0.667 -4.533,0.8 -8.8,0.667 -6.666,-0.4 -8.266,0 -10.8,2.533 -2.8,2.8 -2.933,3.067 -0.4,3.867 1.334,0.533 8.667,1.333 16.134,1.866 7.466,0.4 15.066,1.334 16.933,2.134 7.333,2.666 -0.667,8 -12,8 -3.2,0 -5.867,0.533 -5.867,1.333 0,2.667 -4.4,1.2 -8,-2.667 -4.4,-4.666 -7.6,-5.066 -12.533,-1.2 -4.267,3.334 -4.267,4.134 -0.533,5.867 1.733,0.8 3.333,2.533 3.6,4 0.266,1.467 1.066,3.067 2,3.6 1.066,0.8 1.066,1.6 -0.134,3.6 -1.866,2.933 -1.066,4.133 2.667,4.133 4.8,0 1.333,3.334 -6.8,6.4 -4.533,1.734 -8.267,3.6 -8.267,4.134 0,0.666 6.534,1.466 14.667,2 16,0.933 18.667,1.6 18.667,4.266 0,2 -5.867,3.867 -19.6,6 -5.334,0.8 -9.734,1.867 -9.734,2.534 0,2.133 9.467,9.333 12.4,9.333 6.4,0 7.734,4.667 4.134,14.267 -2,5.2 -1.734,15.066 0.4,15.066 0.4,0 2.4,-1.466 4.666,-3.333 4.134,-3.467 7.067,-4.267 8.4,-2 1.2,1.867 -4.266,13.333 -8.266,17.6 -2,2 -3.067,4.133 -2.534,4.667 0.534,0.533 4.134,1.066 7.867,1.066 5.467,0 6.8,0.4 6.533,2 -0.533,3.2 -8,9.334 -11.333,9.334 -3.867,0 -21.6,15.866 -19.733,17.733 2.133,2.133 8.133,-0.267 9.466,-3.733 1.6,-4.134 9.6,-9.467 17.734,-11.6 5.6,-1.467 6.533,-1.334 8.533,0.666 2.133,2.134 2,2.4 -1.2,5.867 -3.067,3.333 -3.333,4 -1.467,5.6 1.734,1.6 1.467,2.267 -2,6 -2.133,2.267 -4.266,5.6 -4.666,7.333 -0.667,2.934 -0.534,3.067 5.2,2.134 7.2,-1.067 8,1.466 1.733,5.2 -2.133,1.333 -4.533,3.866 -5.2,5.6 -1.467,3.733 -2.533,4 -6.133,1.2 -3.334,-2.534 -4.534,-2.534 -4.534,0 0,2.4 -2.8,2.666 -5.066,0.4 -1.2,-1.2 -1.6,-0.8 -1.6,1.733 0,4.4 3.733,9.333 15.866,20.533 5.334,5.067 10.267,10.667 10.934,12.534 1.2,3.066 1.6,3.2 13.2,2.533 9.333,-0.533 13.066,-1.467 17.6,-4 3.2,-1.867 7.466,-3.733 9.6,-4.267 4.266,-1.066 17.466,-12.933 20.266,-18.4 1.067,-2 1.867,-4.8 1.867,-6.266 0,-1.6 1.333,-3.067 3.867,-3.867 2.133,-0.8 6.133,-3.467 9.066,-6 6.534,-5.867 10,-7.6 13.467,-6.8 5.333,1.467 7.467,-4.8 8.267,-23.2 0.666,-16.133 0.8,-16.533 4.533,-19.733 7.067,-6.134 10.133,-1.2 10.133,16.533 0,6.8 0.534,13.6 1.334,14.933 0.666,1.334 3.466,3.2 6,4 2.666,0.8 6.533,3.067 8.666,4.934 l 4,3.333 1.467,-3.867 c 0.8,-2 1.2,-7.733 0.8,-12.533 -0.4,-5.733 0.133,-10.8 1.333,-14 1.067,-2.933 2,-6.4 2.267,-8 0.267,-1.467 2.8,-5.2 5.867,-8.267 8,-8 11.066,-22.8 8.266,-38.933 -3.466,-19.867 -3.6,-18.4 1.867,-20.667 3.467,-1.466 5.6,-3.466 6.933,-6.666 2.8,-6.8 2.4,-8.134 -4,-15.067 -3.2,-3.467 -6.8,-8.267 -8,-10.667 -3.2,-6.4 -4.8,-28 -4.8,-67.066 0,-38.4 1.2,-45.6 9.6,-57.467 9.467,-13.067 18.534,-17.6 33.067,-16.267 8.667,0.8 9.067,0.8 11.333,-2.666 3.2,-4.8 1.867,-10.534 -4,-16.934 -3.2,-3.6 -4.666,-6.533 -4.666,-9.333 0,-2.267 3.2,-11.467 7.2,-20.4 8.933,-20.4 11.066,-29.867 12.533,-55.067 1.333,-22.8 2.8,-27.066 9.467,-27.066 5.6,0 12,-2.667 13.6,-5.467 0.8,-1.467 0.933,-5.2 0.4,-8.533 -0.667,-5.334 -0.4,-6.534 3.333,-11.067 7.067,-9.067 22.8,-35.333 22.8,-38.133 0,-1.6 -1.867,-5.467 -4,-8.8 -2.133,-3.334 -4,-6.934 -4,-8 0,-1.2 2.4,-4.534 5.467,-7.334 3.333,-3.2 7.733,-9.866 10.933,-16.533 6,-12.4 14.8,-22.8 19.467,-22.8 1.6,0 4.666,0.933 6.933,2.133 8.133,4.134 11.2,-0.133 12.533,-17.866 1.067,-12.8 2.8,-17.467 6.8,-18.4 4,-1.067 4.267,-0.934 24.8,8 9.467,4.133 18,7.466 19.067,7.466 1.467,0 2,-1.466 2,-5.333 0,-2.933 1.467,-8.933 3.333,-13.333 4,-9.6 4.134,-11.734 0.534,-20 -3.867,-9.2 -3.2,-11.067 4.8,-12.4 3.6,-0.667 8.4,-2.534 10.666,-4.134 10.4,-7.866 20.934,-10.933 26.934,-7.733 1.466,0.933 6.4,7.467 10.8,14.533 10.933,17.6 18.266,24.4 26.4,24.4 2,0 7.333,-2.133 12,-4.666 4.533,-2.534 9.6,-4.667 11.2,-4.667 1.466,0 6.8,2.4 11.6,5.333 10.666,6.4 14.533,6.8 16.533,1.734 2.267,-6.134 7.733,-12.267 13.333,-15.067 l 5.2,-2.667 -0.133,-12.4 C 963.2,128.4 964.133,124.4 970.533,107.6 972.4,102.667 974,97.4666 974,95.9999 c 0,-3.4666 3.867,-5.7333 17.2,-10.1333 6.133,-2 16,-6.5333 21.87,-10.1334 5.86,-3.4666 11.06,-6.3999 11.6,-6.3999 1.2,0 18.26,14 25.73,21.2 14.67,13.8667 16.53,24.3997 7.2,39.5997 -4.8,7.6 -6.4,13.867 -3.6,13.867 0.8,0 2.93,-3.333 4.93,-7.6 2.54,-5.333 5.34,-8.667 9.6,-11.6 12,-8.267 13.87,-10.533 12.94,-15.067 -0.54,-2.266 -2.14,-5.2 -3.47,-6.4 -2.4,-2.133 -2.8,-2.133 -7.07,0.534 -4,2.4 -4.8,2.533 -6.13,0.933 -1.87,-2.133 -0.53,-5.7334 3.07,-8.8001 3.2,-2.5333 2.53,-5.3333 -1.34,-5.3333 -2.53,0 -3.73,-0.9334 -4.8,-4 -0.93,-2.6667 -4.13,-6 -9.2,-9.4667 -8.93,-6 -11.6,-9.7333 -9.06,-12.6666 2.26,-2.8001 6.66,-2.2667 18,2.1333 6.4,2.5333 11.2,3.7333 13.06,3.2 4.54,-1.3333 28.8,-17.0667 28.8,-18.6667 0,-2.2667 -9.2,-11.2 -11.73,-11.3333 -1.2,-0.1334 -4.53,-0.1334 -7.2,0 -5.6,0.4 -6.13,-0.5333 -2.93,-4.9334 1.2,-1.7333 1.73,-3.8666 1.33,-4.9333 -0.93,-2.5333 -4.67,-2.5333 -5.6,0 -1.2,2.9333 -2.13,2.5334 -11.47,-3.7333 -6,-4.1334 -8.8,-6.9333 -9.73,-10 -2.4,-8.26672 -7.6,-4.9333 -13.47,9.0667 -4.66,11.0666 -9.06,17.0666 -13.33,18.1333 -5.47,1.3333 -6.53,-1.0667 -3.33,-8.1333 1.6,-3.6001 2.53,-6.6667 2.26,-6.9334 -0.26,-0.4 -2.4,0.4 -4.66,1.4667 -4,2.1333 -8.14,2.8 -8.14,1.4667 0,-0.4001 1.07,-2.2667 2.27,-4.1334 1.2,-1.8666 2.53,-5.6 2.93,-8.2667 0.8,-4.5333 1.34,-5.0666 6.67,-6.3999 3.33,-0.8001 6.53,-2.4001 7.33,-3.46671 4,-6.53333 -14.66,-11.8667 -25.2,-7.20001 z"
       fill="#0f7b78"
       id="NO">
      <title
         id="title40">Norvège</title>
    </path>
    <path
       d="m 549.13201,623.96802 c -9.858,0.248 -19.789,5.347 -20.901,14.449 -2.409,19.733 16.163,56.782 19.641,56.541 4.372,-0.298 24.013,-36.821 22,-56.176 -1.087,-10.458 -10.883,-15.061 -20.747,-14.814 z m 1.383,6.128 c 4.484,0 8.116,3.643 8.116,8.141 0,4.498 -3.632,8.141 -8.116,8.141 -4.484,0 -8.116,-3.643 -8.116,-8.141 0,-4.498 3.632,-8.141 8.116,-8.141 z"
       fill="#f07f1a"
       id="pin-NO">
      <title
         id="title77">Oslo</title>
    </path>
  </g>
  <g
     id="g8">
    <path
       d="m 596.667,905.867 c -7.334,2.8 -21.067,9.866 -22.134,11.6 -0.8,1.333 2.134,13.066 4.667,18.533 1.067,2.133 16.933,13.333 18.933,13.333 0.667,0 0.4,-1.6 -0.4,-3.466 -1.466,-3.2 -1.333,-3.867 2,-6.534 3.734,-2.8 3.734,-2.933 1.467,-6.8 -2,-3.466 -2,-4.4 -0.4,-7.866 1.333,-2.8 3.067,-4.134 5.6,-4.4 4.267,-0.534 4.8,-4.134 1.733,-11.6 -2.133,-5.067 -4,-5.467 -11.466,-2.8 z"
       fill="#0f7b78"
       id="DK-2">
      <title
         id="title55">Danemark</title>
    </path>
    <path
       d="m 547.333,830.267 c -1.066,0.4 -5.6,3.866 -10,7.733 -9.066,7.867 -13.466,10.4 -22,12.667 -8,2.133 -15.466,7.066 -18.266,12.266 -2.134,3.867 -2.4,8 -2.4,31.334 V 921.2 l 5.066,5.2 c 5.067,5.2 7.6,11.2 7.6,17.867 0,5.2 4.134,8.666 11.2,9.733 7.6,1.2 14.8,-1.2 13.334,-4.533 -4.934,-12.134 -3.734,-32.267 2.133,-34.134 1.467,-0.533 2.667,-2 2.667,-3.6 0,-1.733 1.333,-3.2 4,-4.133 3.333,-1.2 4,-2.267 4,-5.733 0,-5.734 4.533,-11.2 9.2,-11.2 2.133,0 4.933,-1.334 6.666,-3.2 l 2.934,-3.2 -4.534,-0.8 c -11.2,-2.134 -14.266,-14 -8.933,-35.467 1.6,-6.667 2.533,-13.467 2.133,-15.333 -0.933,-3.467 -1.333,-3.6 -4.8,-2.4 z"
       fill="#0f7b78"
       id="DK">
      <title
         id="title54">Danemark</title>
    </path>
    <path
       d="m 598.33526,847.009 c -9.858,0.248 -19.789,5.347 -20.901,14.449 -2.409,19.733 16.163,56.782 19.641,56.541 4.372,-0.298 24.013,-36.821 22,-56.176 -1.087,-10.458 -10.883,-15.061 -20.747,-14.814 z m 1.383,6.128 c 4.484,0 8.116,3.643 8.116,8.141 0,4.498 -3.632,8.141 -8.116,8.141 -4.484,0 -8.116,-3.643 -8.116,-8.141 0,-4.498 3.632,-8.141 8.116,-8.141 z"
       fill="#f07f1a"
       id="pin-DK">
      <title
         id="title76">Copenhague</title>
    </path>
  </g>
  <g
     id="g11">
    <path
       d="m 1018.67,78.8 c -6.8,4.5333 -22.403,12.1333 -28.003,13.7333 -11.2,3.2 -20.934,25.8667 -21.2,49.4667 l -0.134,13.2 -7.2,4.8 c -7.466,4.933 -11.2,10.533 -12.666,18.933 -0.534,2.8 -1.467,5.334 -2.267,5.734 -0.667,0.533 -7.2,-2.4 -14.4,-6.534 -7.6,-4.266 -14.8,-7.466 -17.067,-7.466 -2,0 -6.133,1.6 -8.933,3.466 -15.867,10.8 -28.267,4.534 -44.133,-22 -7.334,-12.266 -8.4,-13.333 -12.134,-13.466 -5.6,0 -8.266,2.533 -8.8,8 -0.4,4.666 -0.4,4.666 -6,4.266 -3.2,-0.266 -5.733,0.134 -5.733,0.8 0,2.267 14.4,14.667 31.067,26.534 21.066,14.933 35.066,29.066 40.933,40.933 4,8 4.533,10.533 5.333,24.133 0.534,11.6 1.334,15.734 3.067,17.734 1.6,1.733 2.267,4.8 2.267,10.533 0,5.867 0.933,10.133 3.466,15.733 3.334,7.334 3.467,8.4 2.4,19.2 -0.666,6.267 -1.066,17.734 -1.2,25.467 0,12.933 0.4,14.667 4.134,22.667 5.333,11.466 11.066,17.733 19.6,21.866 3.866,1.734 8,4.4 9.2,5.734 2.666,2.933 5.6,14.8 7.733,31.466 1.867,14.534 0.933,16.134 -7.333,14.8 -4.934,-0.666 -6.134,-0.266 -10.267,3.334 -2.533,2.133 -9.6,11.333 -15.733,20.4 -18,26.533 -20.667,29.733 -28.934,34 -6,2.933 -8.666,5.333 -12.666,11.6 -2.667,4.266 -5.334,10 -5.734,12.666 -1.333,8.667 -3.466,11.334 -10.533,13.067 -7.6,1.867 -10.133,3.733 -10.133,7.6 0,1.6 -2,5.867 -4.267,9.467 -10.533,15.466 -9.867,12.666 -6.533,26.666 1.466,6.934 2.8,16.8 2.8,22 0,7.067 0.8,11.334 3.333,17.334 3.733,8.933 4.133,15.6 1.467,26.533 -3.334,13.067 -5.467,37.867 -3.6,41.333 1.866,3.334 6.533,5.467 12.266,5.467 6.267,0 9.2,2.133 9.2,6.8 0,5.333 2.134,5.867 11.867,2.533 4.533,-1.466 8.8,-2.4 9.333,-2 0.667,0.267 0.8,4.4 0.534,9.067 -1.067,12.8 -0.4,13.067 22,7.6 10.8,-2.667 22.666,-6.533 29.066,-9.6 5.867,-2.8 14,-5.733 18,-6.267 4.134,-0.666 12.8,-3.333 19.6,-6 7.6,-3.066 16.134,-5.2 22.937,-6 15.06,-1.6 13.33,-0.4 49.33,-39.466 23.47,-25.6 31.47,-35.2 45.87,-55.334 13.06,-18.266 17.33,-27.066 17.33,-36.133 0.13,-9.867 -2.93,-14.133 -17.6,-25.2 -10.13,-7.6 -24.27,-23.067 -24.27,-26.667 0,-0.533 3.07,-2.933 6.67,-5.333 11.87,-7.6 13.2,-12.267 6.4,-21.333 -8.53,-11.2 -9.07,-12.4 -8.93,-19.6 0.26,-5.6 -0.4,-7.867 -3.2,-11.6 -5.07,-6.534 -6.67,-16.134 -6,-34.134 0.66,-15.6 2.66,-22.933 6.8,-26.533 4.8,-3.867 1.46,-16.533 -14.54,-54.933 -5.33,-13.2 -9.86,-24.4 -9.86,-24.934 0,-0.533 3.2,-6.133 7.06,-12.4 3.74,-6.266 9.34,-16.4 12.27,-22.4 l 5.33,-10.933 -4,-7.467 c -5.6,-10.4 -12.8,-18.133 -21.33,-22.933 -8.4,-4.8 -10.53,-8.267 -12.8,-20.667 -1.6,-9.466 -1.07,-18.133 1.73,-25.733 1.34,-3.6 1.34,-5.067 0,-7.067 -2.26,-3.733 -2,-5.2 2,-10.933 2.14,-3.2 3.47,-6.8 3.34,-9.467 -0.14,-2.666 2.13,-8.8 6,-16.533 6.93,-14 7.06,-17.467 0.4,-27.2 -4,-6 -26,-25.3334 -28.54,-25.0667 -0.8,0 -3.2,1.2 -5.46,2.6667 z"
       fill="#0f7b78"
       id="FI">
      <title
         id="title38">Finlande</title>
    </path>
    <path
       d="m 908.64038,597.57152 c -9.858,0.248 -19.789,5.347 -20.901,14.449 -2.409,19.733 16.163,56.782 19.641,56.541 4.372,-0.298 24.013,-36.821 22,-56.176 -1.087,-10.458 -10.883,-15.061 -20.747,-14.814 z m 1.383,6.128 c 4.484,0 8.116,3.643 8.116,8.141 0,4.498 -3.632,8.141 -8.116,8.141 -4.484,0 -8.116,-3.643 -8.116,-8.141 0,-4.498 3.632,-8.141 8.116,-8.141 z"
       fill="#f07f1a"
       id="pin-FI">
      <title
         id="title75">Helsinki</title>
    </path>
  </g>
  <g
     id="g17">
    <path
       d="m 1164.93,1073.6 c -2.93,1.73 -5.73,2.53 -8.53,2.13 -2.8,-0.53 -6.27,0.4 -10.27,2.4 -4.26,2.27 -10.26,3.47 -19.86,4.54 -20.8,2 -24.94,5.2 -26.4,20.13 -1.34,13.6 -6,18.4 -10.8,10.8 -3.34,-5.2 -4.54,-5.73 -10.27,-5.07 -3.33,0.4 -8.53,-0.4 -13.73,-2.13 -8.14,-2.67 -8.54,-2.67 -12.8,-0.4 -3.74,2 -5.2,2.13 -9.2,0.8 -2.54,-0.8 -10.94,-2.13 -18.67,-2.8 -12.13,-1.07 -15.2,-1.87 -23.2,-6 -8.133,-4.13 -11.067,-4.93 -25.467,-6.27 -12.4,-1.2 -19.733,-1.2 -29.866,-0.13 -12.667,1.47 -13.867,1.87 -22.667,7.73 -8.133,5.47 -9.2,6.67 -9.2,10.4 0,2.4 2.133,8.67 4.667,14.14 3.6,7.6 4.666,11.33 4.666,17.33 0,7.87 -2.533,13.47 -6,13.47 -2.533,0 -17.333,14.66 -24.666,24.53 l -5.867,7.73 2.267,8.94 c 3.333,12.66 3.066,13.46 -2.267,13.46 -5.733,0 -8.267,2.54 -10.267,9.74 -4.4,16.26 8.134,24.13 41.067,26.13 14.267,0.8 16.933,1.33 20.667,4.13 4,2.94 4.666,3.07 12.8,1.6 10.133,-1.73 25.466,-8.8 33.333,-15.33 3.867,-3.2 8,-5.2 12.933,-6.27 18.267,-3.73 53.997,6.54 63.197,18.14 2.14,2.66 2.8,5.46 2.8,11.2 0,7.33 0.14,7.86 3.87,9.06 2.93,1.07 4.27,2.67 5.33,6.54 0.8,2.8 1.47,6 1.47,7.06 0,1.07 1.87,4.67 4,8 2.27,3.47 4,7.74 4,10.14 0,3.2 0.67,4.4 2.8,4.93 1.6,0.4 2.53,1.6 2.27,2.53 -1.74,4.94 -17.07,7.07 -19.74,2.67 -1.2,-2 -1.73,-1.73 -5.73,2.53 -4.67,5.34 -16.4,24.4 -18.67,30.54 -0.8,2.13 -1.06,4.26 -0.53,4.8 0.4,0.53 4.53,-0.4 9.07,-2.14 21.06,-7.6 42.93,-25.6 46,-37.73 1.06,-4.8 4.53,-7.07 15.2,-9.47 11.6,-2.8 17.73,-2.66 24,0.54 7.2,3.73 8.93,7.06 5.06,10.53 -1.6,1.6 -2.53,3.2 -2,3.6 0.4,0.53 7.87,1.73 16.54,2.8 23.33,2.93 29.86,7.07 22.8,14.67 -1.6,1.86 -7.07,5.33 -12,7.86 -5.07,2.54 -9.07,5.07 -9.07,5.6 0,0.54 3.6,3.2 8,6.14 10.53,6.66 12,9.06 12,18.26 0,9.2 0.93,11.87 3.87,11.87 1.2,0 7.73,-2.67 14.53,-6 6.67,-3.33 13.47,-6 15.07,-6 1.46,0 5.2,-2.4 8.13,-5.33 l 5.2,-5.47 9.87,0.93 c 10.93,0.94 16.66,-1.06 16.66,-6.13 0,-3.33 -2,-3.33 -13.33,-0.4 -5.07,1.2 -10.27,1.73 -12.4,1.33 -1.87,-0.53 -7.33,-4.4 -11.87,-8.66 -4.66,-4.27 -9.46,-8.14 -10.8,-8.67 -6.13,-2.27 -3.73,-9.87 6.54,-20.13 6.26,-6.27 9.2,-8 24.8,-14.14 9.73,-3.73 19.86,-7.2 22.4,-7.6 2.53,-0.4 6.8,-2 9.33,-3.6 2.53,-1.46 10.53,-4.8 17.87,-7.46 12.8,-4.54 13.33,-4.94 16.4,-10.67 3.6,-6.8 14,-18 19.46,-20.8 2.27,-1.2 6.67,-1.87 11.6,-1.6 4.4,0.13 8.54,-0.27 9.34,-1.07 0.66,-0.66 2,-4.8 2.93,-9.06 1.33,-6.67 1.2,-8.67 -0.8,-14.27 -3.07,-8.4 -2,-15.2 4,-24.13 2.53,-3.74 4.4,-7.74 4.27,-8.94 -1.07,-5.2 -29.2,-17.6 -46.94,-20.66 -9.6,-1.74 -10.26,-2.14 -19.86,-14.67 -4.67,-6 -8.54,-6.13 -17.6,-0.8 -8.27,4.93 -9.2,4.93 -15.2,0.4 -3.87,-2.93 -6.14,-3.6 -12.54,-3.73 -6.93,0 -8.26,-0.4 -11.06,-3.74 -3.07,-3.6 -3.74,-6.26 -3.2,-12.66 0.26,-3.74 -4.27,-11.07 -9.47,-15.47 -2.93,-2.53 -4.93,-3.2 -7.73,-2.67 -4.94,1.07 -13.2,-2.66 -14.67,-6.53 -1.73,-4.53 -2,-10.13 -0.93,-16.53 1.33,-7.6 -2.54,-15.2 -10.14,-19.47 -8.4,-4.8 -11.73,-5.2 -16.8,-2 z"
       fill="#0f7b78"
       id="UA">
      <title
         id="title37">Ukraine</title>
    </path>
    <path
       d="m 1097.6704,1124.3406 c -9.858,0.248 -19.789,5.347 -20.901,14.449 -2.409,19.733 16.163,56.782 19.641,56.541 4.372,-0.298 24.013,-36.821 22,-56.176 -1.087,-10.458 -10.883,-15.061 -20.747,-14.814 z m 1.383,6.128 c 4.484,0 8.116,3.643 8.116,8.141 0,4.498 -3.632,8.141 -8.116,8.141 -4.484,0 -8.116,-3.643 -8.116,-8.141 0,-4.498 3.632,-8.141 8.116,-8.141 z"
       fill="#f07f1a"
       id="pin-UA"
       sodipodi:nodetypes="ccccccsssss">
      <title
         id="title74">Kiev</title>
    </path>
  </g>
  <g
     id="g27">
    <path
       d="m 882.267,1397.73 c -1.6,1.74 -2.934,4.4 -2.934,6.14 0,5.6 6,14.8 13.867,21.2 4.667,3.73 0.533,12.26 -6.133,12.26 -2.534,0 -3.2,1.74 -4.267,12 -1.067,9.47 0.533,14.94 6.533,21.47 3.867,4.27 4.667,6.27 4.667,11.2 0,5.2 0.4,6 3.2,6.8 1.867,0.4 8.267,-0.53 14.267,-2 14.266,-3.6 18.266,-3.47 29.6,0.53 6.533,2.4 12.266,3.47 18.266,3.47 12.134,0 18,-2.93 22.134,-10.93 1.866,-3.74 5.066,-7.47 8,-9.34 6.4,-3.86 16.133,-4.8 21.603,-2 5.6,2.94 6.8,2.67 8.26,-1.2 1.87,-4.93 -0.4,-10 -4.66,-10 -4.67,0 -4.4,-4.93 0.53,-11.2 2.13,-2.66 5.6,-9.06 7.47,-14.13 3.46,-9.2 5.73,-11.73 14,-16.27 4.4,-2.53 4.26,-5.06 -0.27,-5.06 -1.6,0 -8.93,-2.8 -16.27,-6.4 -12.4,-5.74 -14.26,-6.27 -23.463,-6.27 -9.467,0 -10.534,0.27 -22,6.67 l -12,6.66 L 940,1411.2 c -36.933,-0.13 -52.667,-3.87 -52.667,-12.53 0,-4.8 -1.2,-5.07 -5.066,-0.94 z"
       fill="#0f7b78"
       id="BG">
      <title
         id="title47">Bulgarie</title>
    </path>
    <path
       d="m 917.44726,1403.0257 c -9.858,0.25 -19.789,5.35 -20.901,14.45 -2.409,19.73 16.163,56.78 19.641,56.54 4.372,-0.3 24.013,-36.82 22,-56.18 -1.087,-10.46 -10.883,-15.06 -20.747,-14.81 z m 1.383,6.13 c 4.484,0 8.116,3.64 8.116,8.14 0,4.5 -3.632,8.14 -8.116,8.14 -4.484,0 -8.116,-3.64 -8.116,-8.14 0,-4.5 3.632,-8.14 8.116,-8.14 z"
       fill="#f07f1a"
       id="pin-BG">
      <title
         id="title73">Sofia</title>
    </path>
  </g>
  <g
     id="g22"
     style="mix-blend-mode:normal">
    <path
       d="m 504.667,1264.93 c -14.534,1.6 -28.934,4.8 -34.4,7.6 -7.734,3.87 -16.934,13.6 -20.134,21.2 -1.333,3.2 -4.133,6.8 -6.133,8.14 -4.533,3.06 -2.533,4.8 4.533,3.86 5.6,-0.8 8,1.34 13.467,11.34 l 3.467,6.26 7.6,-0.13 c 8.133,-0.13 10.666,-1.47 13.333,-6.93 1.867,-4.14 9.867,-9.87 12.8,-9.34 1.2,0.27 3.2,2.4 4.4,4.94 4.4,8.8 7.867,8 15.067,-3.2 2.533,-4 5.2,-7.34 6,-7.34 0.666,0 3.2,1.2 5.466,2.54 3.334,2.13 4.934,2.4 7.067,1.2 3.333,-1.6 10.133,-7.87 10.133,-9.2 0,-0.4 -2.4,-1.2 -5.2,-1.74 -7.333,-1.06 -12.8,-7.73 -14.8,-17.73 -0.8,-4.27 -2,-8.67 -2.533,-9.73 -1.067,-2 -10.4,-2.94 -20.133,-1.74 z"
       fill="#0f7b78"
       id="CH">
      <title
         id="title36">Suisse</title>
    </path>
  </g>
  <g
     id="g32">
    <path
       d="m 830.267,1230.53 c -2.267,0.67 -6.934,3.6 -10.267,6.67 -4.933,4.53 -6.8,5.47 -11.6,5.47 -3.2,0 -6.933,0.93 -8.267,2 -1.466,1.06 -5.466,2.4 -9.066,2.8 -5.334,0.66 -6.934,1.6 -8.4,4.53 -2.8,5.33 -8.934,7.33 -22.667,7.33 -10.133,0 -12.8,-0.53 -16.8,-3.06 -6.133,-3.74 -7.067,-3.74 -9.2,0.26 -0.933,1.87 -3.467,4 -5.467,4.94 -2.266,0.8 -3.866,2.53 -3.866,3.86 0,1.34 -0.934,3.07 -2,4 -2.667,2.27 -6,13.87 -6,20.94 0,12.53 10,23.46 30.533,33.33 14.133,6.8 19.2,7.47 24.8,3.33 4.933,-3.46 13.467,-5.73 42.4,-10.8 12.4,-2.13 23.867,-4.93 25.6,-6 1.867,-1.2 3.6,-3.86 4.133,-5.86 1.6,-7.47 4.934,-14.54 12.134,-25.47 10.133,-15.6 17.466,-23.87 23.733,-27.07 l 5.2,-2.8 -5.2,-4.4 c -5.467,-4.66 -14.8,-8.53 -20.267,-8.53 -1.733,0 -4.8,-1.2 -6.933,-2.8 -4.133,-3.07 -15.6,-4.4 -22.533,-2.67 z"
       fill="#0f7b78"
       id="HU">
      <title
         id="title35">Hongrie</title>
    </path>
    <path
       d="m 806.57509,1210.2804 c -9.858,0.248 -19.789,5.347 -20.901,14.449 -2.409,19.733 16.163,56.782 19.641,56.541 4.372,-0.298 24.013,-36.821 22,-56.176 -1.087,-10.458 -10.883,-15.061 -20.747,-14.814 z m 1.383,6.128 c 4.484,0 8.116,3.643 8.116,8.141 0,4.498 -3.632,8.141 -8.116,8.141 -4.484,0 -8.116,-3.643 -8.116,-8.141 0,-4.498 3.632,-8.141 8.116,-8.141 z"
       fill="#f07f1a"
       id="pin-HU">
      <title
         id="title71">Budapest</title>
    </path>
  </g>
  <g
     id="g26">
    <path
       d="m 705.333,1313.2 c -5.333,2.27 -7.733,6.4 -6.8,11.33 0.8,4 0.4,5.2 -2.666,7.74 -1.867,1.73 -4.934,5.2 -6.534,7.86 -1.733,2.67 -5.066,5.6 -7.466,6.54 -3.867,1.6 -4.8,1.6 -9.6,-1.07 -9.2,-5.07 -10.4,-0.27 -2.4,9.47 2.933,3.46 5.733,8.26 6.133,10.66 1.333,5.87 4,10.67 8.8,16.27 3.467,3.87 4,5.47 3.333,8.8 -1.6,8.4 18.134,23.87 30.8,23.87 3.2,0 5.734,-0.27 5.734,-0.67 0,-0.4 -5.067,-8 -11.334,-16.8 C 701.067,1379.87 694,1366.4 694,1360.8 c 0,-6.93 3.867,-8.8 18.4,-8.8 7.067,0 22.667,0.93 34.533,2 19.2,1.73 25.467,2.93 34,6.67 1.734,0.66 2.8,-0.27 4.667,-4.14 2.933,-6.13 6.133,-8.4 9.333,-6.4 3.467,2.14 3.467,4 0.267,7.07 -2.933,2.8 -2.933,2.8 -0.4,7.47 2.133,4.13 2.267,5.2 0.667,8.93 -3.867,9.47 -3.6,11.47 2.666,17.87 l 5.734,5.86 -3.867,4 c -3.6,3.74 -3.6,4.14 -1.6,6.4 3.867,4.27 2.8,8.14 -2.533,10.4 -2.667,1.07 -6.267,3.74 -8.134,6 -1.866,2.14 -4.4,3.87 -5.866,3.87 -1.6,0 -2.8,1.2 -3.334,3.33 -0.4,1.87 -2,4 -3.333,4.8 -3.2,1.74 -3.2,5.2 0.133,12.27 2.667,5.6 8.534,12.93 10.4,12.93 0.534,0 3.734,-2.8 6.934,-6.13 3.333,-3.33 7.333,-6.67 8.933,-7.2 6.533,-2.67 21.733,5.87 25.2,14.13 1.067,2.54 2.4,4.54 3.067,4.54 0.666,0 4.933,-1.74 9.733,-4 6.133,-2.94 11.867,-4.27 20.933,-5.2 6.934,-0.8 13.2,-2 13.867,-2.67 0.667,-0.67 1.333,-4.4 1.467,-8 0.266,-6.13 0.933,-7.47 5.866,-12.53 l 5.734,-5.74 -2.934,-2.66 c -3.866,-3.47 -8.666,-12.14 -10.4,-18.8 -1.2,-4.54 -1.2,-6.54 0.534,-10.54 2.533,-6 2.666,-17.86 0.266,-17.86 -0.933,0 -2.4,1.2 -3.333,2.66 -0.933,1.47 -2.267,2.67 -3.067,2.67 -0.8,0 -5.2,-2.8 -10,-6.13 -8.533,-6.14 -11.333,-9.74 -13.066,-16.8 -0.4,-2 -3.6,-5.87 -6.934,-8.54 -4.133,-3.33 -7.466,-7.86 -10,-13.46 -4.133,-8.54 -9.733,-14.54 -15.2,-15.87 -4.133,-1.07 -23.466,3.07 -25.866,5.47 -1.6,1.6 -1.6,2.93 0.266,10.13 2.4,9.47 1.867,11.87 -2.533,11.87 -3.867,0 -5.867,-4.14 -5.867,-11.87 0,-6.53 -2.133,-8.67 -5.466,-5.33 -1.334,1.33 -4,2.53 -5.734,2.53 -6.533,0 -20,-5.33 -35.466,-14 -16,-8.93 -22.4,-10.93 -27.334,-8.8 z"
       fill="#0f7b78"
       id="HR">
      <title
         id="title48">Croatie</title>
    </path>
  </g>
</svg>
